<?xml version="1.0" encoding="utf-8"?>
<!-- Generator: Adobe Illustrator 27.0.0, SVG Export Plug-In . SVG Version: 6.00 Build 0)  -->
<svg version="1.1" id="Layer_1" xmlns="http://www.w3.org/2000/svg" xmlns:xlink="http://www.w3.org/1999/xlink" x="0px" y="0px"
	 viewBox="0 0 48 48" style="enable-background:new 0 0 48 48;" xml:space="preserve">
<style type="text/css">
	.st0{fill-rule:evenodd;clip-rule:evenodd;fill:url(#Rectangle_00000081636092626702658710000002582082559359999379_);}
	.st1{fill-rule:evenodd;clip-rule:evenodd;}
	.st2{fill-rule:evenodd;clip-rule:evenodd;fill:url(#path-3_00000059275206272064008600000005417010008931580597_);}
	.st3{fill-rule:evenodd;clip-rule:evenodd;fill:url(#Combined-Shape_00000015345800892701048980000018252573104246513030_);}
	.st4{fill:#130754;}
	.st5{fill:#FFCA00;}
	.st6{fill:#E70488;}
	.st7{fill:#4DABCF;}
	.st8{fill:#4D77CF;}
	.st9{fill:#FFFFFF;}
	.st10{fill:#D00000;}
	.st11{fill:#E55B2D;}
	.st12{fill:#ED8E24;}
	.st13{fill:#F8BF3C;}
	.st14{fill:#252F3E;}
	.st15{fill-rule:evenodd;clip-rule:evenodd;fill:#FF9900;}
	.st16{fill:#00546B;}
	.st17{fill:#599636;}
	.st18{fill:#6CAC48;}
	.st19{fill:#C2BFBF;}
	.st20{fill:#D90942;}
	.st21{fill:#D90D45;}
	.st22{fill:#0B719E;}
	.st23{fill:#09719F;}
	.st24{fill:#143C67;}
	.st25{fill:#E8762D;}
	.st26{fill:#C72037;}
	.st27{fill:#5B879B;}
	.st28{fill:#5C6692;}
	.st29{fill:#EB9129;}
	.st30{fill-rule:evenodd;clip-rule:evenodd;fill:#1F457E;}
	.st31{fill:#7199A6;}
	.st32{fill-rule:evenodd;clip-rule:evenodd;fill:#1F1917;}
	.st33{fill-rule:evenodd;clip-rule:evenodd;fill:#66CCFF;}
	.st34{fill-rule:evenodd;clip-rule:evenodd;fill:#FFFF00;stroke:#1F1917;stroke-width:0.27;stroke-miterlimit:12.5;}
	.st35{fill-rule:evenodd;clip-rule:evenodd;fill:#FFFFCC;}
	.st36{fill-rule:evenodd;clip-rule:evenodd;fill:#CCCC00;}
	.st37{fill-rule:evenodd;clip-rule:evenodd;fill:#E25A1C;}
	.st38{fill-rule:evenodd;clip-rule:evenodd;fill:#3C3A3E;}
	.st39{fill:#3C3A3E;}
	.st40{fill:url(#path1948_00000105424462868664437140000010043019788147881896_);}
	.st41{fill:url(#path1950_00000149360493542226527580000013367750853627662217_);}
</style>
<g id="PBI-Logo">
	<g id="Group" transform="translate(77.500000, 0.000000)">
		
			<linearGradient id="Rectangle_00000129920754347879165930000004449139319317630115_" gradientUnits="userSpaceOnUse" x1="-1001.3206" y1="20.0818" x2="-1001.3206" y2="20.0288" gradientTransform="matrix(219 0 0 -630 218892.4375 12593.9785)">
			<stop  offset="0" style="stop-color:#EBBB14"/>
			<stop  offset="1" style="stop-color:#B25400"/>
		</linearGradient>
		
			<path id="Rectangle" style="fill-rule:evenodd;clip-rule:evenodd;fill:url(#Rectangle_00000129920754347879165930000004449139319317630115_);" d="
			M-401.2-57.6h8.9c0.8,0,1.4,0.6,1.4,1.4v30.7c0,0.8-0.6,1.4-1.4,1.4h-8.9c-0.8,0-1.4-0.6-1.4-1.4v-30.7
			C-402.6-56.9-402-57.6-401.2-57.6z"/>
		<g id="Combined-Shape">
			<g>
				<path id="path-3" class="st1" d="M-397.8-25.5v1.4h-1.4h-8.9c-0.8,0-1.4-0.6-1.4-1.4v-22.3c0-0.8,0.6-1.4,1.4-1.4h8.9
					c0.8,0,1.4,0.6,1.4,1.4V-25.5z"/>
			</g>
			<g>
				
					<linearGradient id="path-3_00000169558636845879691110000006010029869510968708_" gradientUnits="userSpaceOnUse" x1="-1000.7628" y1="20.3738" x2="-1000.7628" y2="20.3208" gradientTransform="matrix(219 0 0 -473 218763.4375 9587.5957)">
					<stop  offset="0" style="stop-color:#F9E583"/>
					<stop  offset="1" style="stop-color:#DE9800"/>
				</linearGradient>
				
					<path id="path-3_00000032635739410916841640000017222616747860975010_" style="fill-rule:evenodd;clip-rule:evenodd;fill:url(#path-3_00000169558636845879691110000006010029869510968708_);" d="
					M-397.8-25.5v1.4h-1.4h-8.9c-0.8,0-1.4-0.6-1.4-1.4v-22.3c0-0.8,0.6-1.4,1.4-1.4h8.9c0.8,0,1.4,0.6,1.4,1.4V-25.5z"/>
			</g>
		</g>
		
			<linearGradient id="Combined-Shape_00000059308921570366948590000004464680906538570664_" gradientUnits="userSpaceOnUse" x1="-1000.2137" y1="20.9616" x2="-1000.2137" y2="20.9086" gradientTransform="matrix(219 0 0 -315 218636.4375 6562.0645)">
			<stop  offset="0" style="stop-color:#F9E68B"/>
			<stop  offset="1" style="stop-color:#F3CD32"/>
		</linearGradient>
		
			<path id="Combined-Shape_00000067233861074536234490000002219205934687464605_" style="fill-rule:evenodd;clip-rule:evenodd;fill:url(#Combined-Shape_00000059308921570366948590000004464680906538570664_);" d="
			M-404.5-25.5v1.4h-1.4h-8.9c-0.8,0-1.4-0.6-1.4-1.4v-13.9c0-0.8,0.6-1.4,1.4-1.4h8.9c0.8,0,1.4,0.6,1.4,1.4V-25.5z"/>
	</g>
</g>
<g>
	<rect id="rect8" x="-262.5" y="-55.3" class="st4" width="3.6" height="7.4"/>
	<rect id="rect10" x="-262.5" y="-40" class="st4" width="3.6" height="7.4"/>
	<rect id="rect12" x="-262.5" y="-45.7" class="st5" width="3.6" height="3.5"/>
	<rect id="rect14" x="-268.2" y="-49.2" class="st4" width="3.6" height="24.7"/>
	<rect id="rect16" x="-256.8" y="-33.9" class="st4" width="3.6" height="7.4"/>
	<rect id="rect18" x="-256.8" y="-49.2" class="st4" width="3.6" height="7.4"/>
	<rect id="rect20" x="-256.8" y="-39.6" class="st6" width="3.6" height="3.5"/>
	<rect id="rect22" x="-251.2" y="-57.2" class="st4" width="3.6" height="24.7"/>
</g>
<g id="Layer_1_00000008129084954841612490000003374023661808996260_">
	<polygon class="st7" points="-188.7,-50.2 -194,-52.9 -199.8,-50 -194.4,-47.3 	"/>
	<polygon class="st7" points="-186.3,-49 -180.8,-46.2 -186.5,-43.3 -191.9,-46.1 	"/>
	<polygon class="st7" points="-178.9,-52.8 -173.2,-50 -178.3,-47.4 -183.8,-50.2 	"/>
	<polygon class="st7" points="-181.3,-54.1 -186.5,-56.6 -191.5,-54.1 -186.2,-51.5 	"/>
	<polygon class="st7" points="-185.3,-32 -185.3,-25.1 -179.1,-28.2 -179.2,-35.1 	"/>
	<polygon class="st7" points="-179.2,-37.6 -179.2,-44.5 -185.3,-41.4 -185.3,-34.5 	"/>
	<polygon class="st7" points="-171.7,-38.9 -171.7,-31.9 -177,-29.2 -177,-36.2 	"/>
	<polygon class="st7" points="-171.7,-41.3 -171.7,-48.2 -177,-45.6 -177,-38.6 	"/>
	<path class="st8" d="M-187.5-41.4l-4.2-2.1v9.1c0,0-5.1-10.9-5.6-11.8c-0.1-0.1-0.3-0.3-0.4-0.3c-0.9-0.5-3.6-1.8-3.6-1.8v16l3.7,2
		v-8.4c0,0,5,9.7,5.1,9.8c0.1,0.1,0.6,1.1,1.1,1.5c0.7,0.5,3.8,2.3,3.8,2.3L-187.5-41.4z"/>
</g>
<g>
	<g>
		<path class="st9" d="M-100-25.2C-100-25.2-100-25.2-100-25.2l-31.2,0c0,0,0,0,0,0v-31.2c0,0,0,0,0,0h31.2c0,0,0,0,0,0L-100-25.2
			L-100-25.2z"/>
	</g>
	<g>
		<path class="st10" d="M-100.5-25.8C-100.5-25.8-100.5-25.8-100.5-25.8l-30.2,0c0,0,0,0,0,0v-30.2c0,0,0,0,0,0h30.2c0,0,0,0,0,0
			L-100.5-25.8L-100.5-25.8z"/>
	</g>
	<g>
		<path class="st9" d="M-122.4-32.6C-122.4-32.6-122.4-32.6-122.4-32.6l0.5,0.6c0,0,0,0,0.1,0h1.8c0,0,0.1,0,0.1,0l0.5-0.5
			c0,0,0,0,0-0.1v-5.6c0,0,0-0.1,0-0.1l2.2-2.1c0,0,0,0,0.1,0l5.7,8.4c0,0,0,0,0.1,0h2.5c0,0,0.1,0,0.1,0l0.5-0.9c0,0,0-0.1,0-0.1
			l-6.6-9.6c0,0,0,0,0-0.1l6.1-6.1c0,0,0,0,0-0.1V-49c0,0,0-0.1,0-0.1l-0.4-0.8c0,0,0,0-0.1,0h-2.5c0,0-0.1,0-0.1,0l-7.6,7.6
			c0,0,0,0,0,0v-7c0,0,0-0.1,0-0.1l-0.5-0.5c0,0,0,0-0.1,0h-1.8c0,0-0.1,0-0.1,0l-0.5,0.6c0,0,0,0,0,0.1L-122.4-32.6L-122.4-32.6z"
			/>
	</g>
</g>
<g id="layer1" transform="translate(-77.942529,-177.00005)">
	<g id="g4550">
		<path id="path4508" class="st11" d="M32.6,125.5v4.7l8.2,4.7v-4.7L32.6,125.5z M16.2,130.2v4.7l4.1,2.4v-4.7L16.2,130.2z
			 M28.5,132.6l-4.1,2.4v14.2l4.1,2.4v-9.5l4.1,2.4v-4.7l-4.1-2.4V132.6z"/>
		<path id="path4491" class="st12" d="M32.6,125.5l-12.3,7.1v4.7l8.2-4.7v4.7l4.1-2.4V125.5z M44.9,127.9l-4.1,2.4v4.7l4.1-2.4
			V127.9z M36.7,137.3l-4.1,2.4v4.7l4.1-2.4V137.3z M32.6,144.4l-4.1-2.4v9.5l4.1-2.4V144.4z"/>
		<path id="path4506" class="st13" d="M32.6,120.8l-16.4,9.5l4.1,2.4l12.3-7.1l8.2,4.7l4.1-2.4L32.6,120.8z M32.6,135l-4.1,2.4
			l4.1,2.4l4.1-2.4L32.6,135z"/>
	</g>
</g>
<g>
	<path class="st14" d="M17-43.5c0,0.4,0,0.7,0.1,0.9c0.1,0.2,0.2,0.5,0.3,0.8c0.1,0.1,0.1,0.2,0.1,0.2c0,0.1-0.1,0.2-0.2,0.3
		l-0.7,0.4c-0.1,0.1-0.2,0.1-0.3,0.1c-0.1,0-0.2-0.1-0.3-0.1c-0.1-0.2-0.3-0.3-0.4-0.5c-0.1-0.2-0.2-0.4-0.3-0.6
		c-0.8,1-1.9,1.5-3.1,1.5c-0.9,0-1.6-0.3-2.1-0.8c-0.5-0.5-0.8-1.2-0.8-2c0-0.9,0.3-1.6,1-2.2c0.6-0.6,1.5-0.8,2.6-0.8
		c0.4,0,0.7,0,1.1,0.1c0.4,0.1,0.8,0.1,1.2,0.2v-0.8c0-0.8-0.2-1.4-0.5-1.7c-0.3-0.3-0.9-0.5-1.7-0.5c-0.4,0-0.8,0-1.1,0.1
		s-0.8,0.2-1.1,0.4c-0.2,0.1-0.3,0.1-0.4,0.1c-0.1,0-0.1,0-0.2,0c-0.1,0-0.2-0.1-0.2-0.3v-0.5c0-0.2,0-0.3,0.1-0.4
		c0.1-0.1,0.1-0.1,0.3-0.2c0.4-0.2,0.8-0.4,1.3-0.5c0.5-0.1,1.1-0.2,1.7-0.2c1.3,0,2.2,0.3,2.8,0.9c0.6,0.6,0.9,1.4,0.9,2.6L17-43.5
		L17-43.5z M12.7-41.9c0.4,0,0.7-0.1,1.1-0.2c0.4-0.1,0.7-0.4,1-0.7c0.2-0.2,0.3-0.4,0.4-0.7c0.1-0.3,0.1-0.6,0.1-0.9v-0.4
		c-0.3-0.1-0.6-0.1-1-0.2s-0.7-0.1-1-0.1c-0.7,0-1.2,0.1-1.6,0.4s-0.5,0.7-0.5,1.2c0,0.5,0.1,0.9,0.4,1.1
		C11.9-42,12.2-41.9,12.7-41.9z M21.2-40.7c-0.2,0-0.3,0-0.4-0.1c-0.1-0.1-0.2-0.2-0.2-0.4l-2.5-8.2c-0.1-0.2-0.1-0.4-0.1-0.4
		c0-0.2,0.1-0.3,0.3-0.3h1c0.2,0,0.3,0,0.4,0.1c0.1,0.1,0.1,0.2,0.2,0.4l1.8,7l1.7-7c0.1-0.2,0.1-0.4,0.2-0.4
		c0.1-0.1,0.2-0.1,0.4-0.1h0.9c0.2,0,0.3,0,0.4,0.1c0.1,0.1,0.2,0.2,0.2,0.4l1.7,7.1l1.8-7.1c0.1-0.2,0.1-0.4,0.2-0.4
		c0.1-0.1,0.2-0.1,0.4-0.1h1c0.2,0,0.3,0.1,0.3,0.3c0,0.1,0,0.1,0,0.2s0,0.1-0.1,0.3l-2.6,8.2c-0.1,0.2-0.1,0.4-0.2,0.4
		s-0.2,0.1-0.4,0.1h-0.9c-0.2,0-0.3,0-0.4-0.1s-0.2-0.2-0.2-0.4l-1.6-6.9l-1.6,6.8c-0.1,0.2-0.1,0.4-0.2,0.4
		c-0.1,0.1-0.2,0.1-0.4,0.1H21.2z M34.9-40.4c-0.6,0-1.1-0.1-1.6-0.2c-0.5-0.1-0.9-0.3-1.2-0.4c-0.2-0.1-0.3-0.2-0.3-0.3
		c0-0.1-0.1-0.2-0.1-0.3v-0.5c0-0.2,0.1-0.3,0.2-0.3c0.1,0,0.1,0,0.2,0s0.2,0.1,0.3,0.1c0.4,0.2,0.8,0.3,1.2,0.4
		c0.4,0.1,0.8,0.1,1.3,0.1c0.7,0,1.2-0.1,1.6-0.4c0.4-0.2,0.6-0.6,0.6-1c0-0.3-0.1-0.5-0.3-0.7c-0.2-0.2-0.6-0.4-1.1-0.6L34-45
		c-0.8-0.2-1.3-0.6-1.7-1.1c-0.4-0.5-0.5-1-0.5-1.5c0-0.4,0.1-0.8,0.3-1.2s0.4-0.6,0.8-0.9c0.3-0.2,0.7-0.4,1.1-0.6s0.9-0.2,1.3-0.2
		c0.2,0,0.5,0,0.7,0c0.2,0,0.5,0.1,0.7,0.1c0.2,0.1,0.4,0.1,0.6,0.2c0.2,0.1,0.3,0.1,0.4,0.2c0.1,0.1,0.3,0.2,0.3,0.3
		c0.1,0.1,0.1,0.2,0.1,0.4v0.5c0,0.2-0.1,0.3-0.2,0.3c-0.1,0-0.2,0-0.4-0.1c-0.6-0.3-1.3-0.4-2-0.4c-0.6,0-1.1,0.1-1.4,0.3
		s-0.5,0.5-0.5,0.9c0,0.3,0.1,0.6,0.3,0.8c0.2,0.2,0.6,0.4,1.2,0.6l1.5,0.5c0.8,0.2,1.3,0.6,1.6,1c0.3,0.4,0.5,0.9,0.5,1.5
		c0,0.5-0.1,0.9-0.3,1.2c-0.2,0.4-0.4,0.7-0.8,0.9c-0.3,0.3-0.7,0.5-1.2,0.6C35.9-40.5,35.4-40.4,34.9-40.4z"/>
	<g>
		<path class="st15" d="M36.9-35.3c-3.5,2.6-8.6,4-12.9,4c-6.1,0-11.6-2.3-15.8-6c-0.3-0.3,0-0.7,0.4-0.5c4.5,2.6,10.1,4.2,15.8,4.2
			c3.9,0,8.1-0.8,12.1-2.5C37-36.3,37.5-35.7,36.9-35.3z"/>
		<path class="st15" d="M38.4-36.9c-0.4-0.6-3-0.3-4.1-0.1c-0.3,0-0.4-0.3-0.1-0.5c2-1.4,5.3-1,5.7-0.5c0.4,0.5-0.1,3.8-2,5.3
			c-0.3,0.2-0.6,0.1-0.4-0.2C37.9-34,38.8-36.3,38.4-36.9z"/>
	</g>
</g>
<path class="st16" d="M177.7-31.6c-1.6,0-2.8,0.1-3.8,0.6c-0.3,0.1-0.8,0.1-0.8,0.5c0.2,0.2,0.2,0.4,0.3,0.6c0.2,0.4,0.7,0.9,1,1.2
	c0.4,0.3,0.8,0.6,1.3,0.9c0.8,0.5,1.6,0.7,2.4,1.2c0.4,0.3,0.9,0.6,1.3,0.9c0.2,0.2,0.4,0.4,0.6,0.5v-0.1c-0.1-0.2-0.2-0.4-0.3-0.6
	c-0.2-0.2-0.4-0.4-0.6-0.6c-0.6-0.8-1.3-1.4-2.1-2c-0.6-0.4-2-1-2.3-1.8c0,0,0,0,0,0c0.4,0,0.9-0.2,1.4-0.3c0.7-0.2,1.3-0.1,2-0.3
	c0.3-0.1,0.6-0.2,0.9-0.3v-0.2c-0.4-0.4-0.6-0.8-1-1.2c-1-0.9-2.1-1.7-3.3-2.4c-0.6-0.4-1.4-0.7-2.1-1c-0.2-0.1-0.6-0.2-0.8-0.4
	c-0.4-0.4-0.6-1-0.8-1.5c-0.6-1.1-1.1-2.3-1.6-3.4c-0.4-0.8-0.6-1.5-1-2.2c-2-3.4-4.2-5.4-7.6-7.4c-0.7-0.4-1.6-0.6-2.5-0.8
	c-0.5,0-1-0.1-1.5-0.1c-0.3-0.1-0.6-0.5-0.9-0.7c-1.1-0.7-4-2.2-4.9-0.2c-0.5,1.3,0.8,2.5,1.2,3.2c0.3,0.5,0.8,1,1,1.5
	c0.1,0.3,0.2,0.7,0.3,1c0.3,0.9,0.6,1.8,1,2.6c0.2,0.4,0.5,0.8,0.7,1.2c0.2,0.2,0.4,0.3,0.5,0.7c-0.3,0.4-0.3,1-0.5,1.5
	c-0.7,2.2-0.4,5,0.6,6.6c0.3,0.5,1.1,1.6,2.1,1.2c0.9-0.4,0.7-1.5,0.9-2.5c0.1-0.2,0-0.4,0.1-0.6v0c0.3,0.6,0.6,1.1,0.8,1.6
	c0.6,1,1.7,2,2.6,2.6c0.5,0.4,0.8,1,1.4,1.2v-0.1h0c-0.1-0.2-0.3-0.3-0.5-0.4c-0.4-0.4-0.7-0.8-1-1.2c-0.8-1.1-1.6-2.3-2.2-3.6
	c-0.3-0.6-0.6-1.3-0.8-1.9c-0.1-0.2-0.1-0.6-0.3-0.7c-0.3,0.4-0.7,0.8-0.9,1.3c-0.4,0.8-0.4,1.9-0.6,3c-0.1,0,0,0-0.1,0
	c-0.6-0.2-0.8-0.8-1.1-1.4c-0.6-1.4-0.7-3.6-0.2-5.3c0.1-0.4,0.7-1.7,0.5-2.1c-0.1-0.4-0.5-0.6-0.7-0.9c-0.3-0.4-0.5-0.8-0.7-1.3
	c-0.5-1.1-0.7-2.3-1.2-3.4c-0.2-0.5-0.7-1-1-1.5c-0.4-0.5-0.8-0.9-1.1-1.5c-0.1-0.2-0.2-0.6-0.1-0.8c0-0.2,0.1-0.2,0.3-0.3
	c0.3-0.2,1,0.1,1.2,0.2c0.7,0.3,1.3,0.6,2,1c0.3,0.2,0.6,0.6,0.9,0.7h0.4c0.6,0.1,1.3,0,1.9,0.2c1,0.3,2,0.8,2.8,1.4
	c2.6,1.6,4.7,4,6.2,6.7c0.2,0.5,0.3,0.9,0.6,1.3c0.4,1,0.9,2,1.3,2.9c0.4,0.9,0.8,1.9,1.4,2.6c0.3,0.4,1.5,0.6,2,0.8
	c0.4,0.2,1,0.3,1.4,0.6c0.7,0.4,1.3,0.9,2,1.3C176.6-32.5,177.6-32,177.7-31.6L177.7-31.6z"/>
<g>
	<path class="st17" d="M93.9-56.4l0.8,1.6c0.2,0.3,0.4,0.5,0.6,0.8c0.7,0.7,1.4,1.4,2,2.2c1.4,1.9,2.4,3.9,3.1,6.2
		c0.4,1.4,0.6,2.8,0.6,4.2c0.1,4.2-1.4,7.9-4.3,10.9c-0.5,0.5-1,0.9-1.5,1.3c-0.3,0-0.4-0.2-0.5-0.4c-0.2-0.4-0.4-0.8-0.4-1.2
		c-0.1-0.5-0.2-1-0.1-1.6v-0.2C94.1-32.8,93.8-56.3,93.9-56.4L93.9-56.4z"/>
	<path class="st18" d="M93.9-56.5c0-0.1-0.1,0-0.1,0c0,0.3-0.1,0.6-0.3,0.9c-0.2,0.3-0.5,0.5-0.8,0.8c-1.5,1.3-2.7,2.9-3.7,4.7
		c-1.3,2.4-1.9,5-2.1,7.6c-0.1,1,0.3,4.4,0.6,5.4c0.8,2.6,2.3,4.8,4.3,6.7c0.5,0.5,1,0.9,1.5,1.3c0.2,0,0.2-0.1,0.2-0.2
		c0.1-0.2,0.1-0.4,0.2-0.7l0.3-2.6L93.9-56.5z"/>
	<path class="st19" d="M94.8-28.3c0-0.4,0.2-0.7,0.4-1c-0.2-0.1-0.4-0.3-0.5-0.4c-0.1-0.2-0.2-0.4-0.3-0.6c-0.2-0.7-0.3-1.5-0.4-2.2
		V-33C94-32.9,94-32.3,94-32.2c0,0.8-0.2,1.5-0.3,2.3c-0.1,0.3-0.1,0.6-0.3,0.9c0,0,0,0.1,0,0.1c0.3,0.9,0.4,1.8,0.4,2.8v0.3
		c0,0.4,0,0.3,0.3,0.5c0.1,0.1,0.3,0.1,0.4,0.2c0.1,0,0.1-0.1,0.1-0.2l-0.1-0.6v-1.6C94.7-27.7,94.7-28,94.8-28.3L94.8-28.3z"/>
</g>
<g>
	<path class="st20" d="M-331.1,27.3c-2,0-3.3-1.3-3.3-3.4c0-2.1,1.3-3.4,3.3-3.4c2,0,3.3,1.3,3.3,3.4
		C-327.8,25.9-329.1,27.3-331.1,27.3z M-329.5,23.8c0-0.2-0.1-0.5-0.1-0.7c-0.2-0.7-0.7-1.1-1.4-1.1c-0.7,0-1.2,0.4-1.4,1.1
		c-0.2,0.7-0.2,1.4,0.1,2.1c0.3,0.5,0.7,0.7,1.3,0.7c0.5,0,1-0.2,1.3-0.7C-329.6,24.7-329.5,24.3-329.5,23.8z"/>
	<path class="st21" d="M-339.6,21.4c0.5-0.6,1.2-0.9,2-0.9c1.2,0.1,2,0.9,2.1,2.1c0,1.4,0,2.7,0,4.1c0,0.4-0.1,0.5-0.5,0.5
		c-1.2,0-1.2,0-1.2-1.2c0-0.9,0-1.9,0-2.8c0-0.7-0.3-1-0.8-1.1c-0.6-0.1-1.2,0.2-1.4,0.8c-0.1,0.3-0.1,0.6-0.1,0.9c0,1,0,2,0,3.1
		c0,0.4-0.1,0.5-0.5,0.5c-1.3,0-1.3,0-1.3-1.3c0-1.5,0-3.1,0-4.6c0-0.5,0.1-0.6,0.6-0.6c0.1,0,0.2,0,0.3,0
		C-339.8,20.6-339.8,20.6-339.6,21.4z"/>
	<path class="st22" d="M-326.2,25c0.5,0,0.9-0.1,1.1,0.5c0.2,0.6,1.7,0.6,2.1,0.2c0.3-0.3,0.2-0.6-0.2-0.8c-0.4-0.2-0.9-0.2-1.4-0.4
		c-0.4-0.1-0.7-0.2-1-0.3c-0.7-0.2-1.1-0.7-1.2-1.4c-0.1-0.8,0.2-1.5,0.9-1.9c1.2-0.6,2.4-0.6,3.7,0.1c0.1,0.1,0.2,0.1,0.3,0.2
		c0.4,0.4,0.6,0.8,0.5,1.4c0,0.1-1.3,0.2-1.5,0.1c-0.1,0-0.2-0.1-0.2-0.2c-0.3-0.6-1.2-0.8-1.8-0.5c-0.4,0.2-0.4,0.6,0,0.8
		c0.4,0.2,0.8,0.2,1.2,0.3c0.5,0.1,1,0.2,1.4,0.4c1.3,0.6,1.5,2.3,0.3,3.2c-1.1,0.8-3.3,0.7-4.4-0.1c-0.2-0.1-0.4-0.3-0.5-0.5
		c-0.2-0.3-0.4-0.7-0.2-1C-326.8,24.8-326.4,25.1-326.2,25z"/>
	<path class="st23" d="M-315.8,21.5C-315.7,21.4-315.7,21.4-315.8,21.5c0.2-0.3-0.1-0.7,0.2-0.8c0.4-0.1,0.9,0,1.3,0
		c0.2,0,0.2,0.2,0.2,0.3c0,2.8,0,5.5,0,8.3c0,0.2-0.1,0.4-0.3,0.4c0,0-0.1,0-0.1,0c-1.3,0-1.3,0-1.3-1.3c0-0.6,0-1.2,0-1.9
		c-0.2,0.2-0.4,0.3-0.6,0.4c0-0.4-0.3-0.8-0.1-1.2c0.9-0.8,1-2,0.4-3.2C-315.7,22.2-315.9,21.8-315.8,21.5z"/>
	<path class="st22" d="M-315.8,21.5c-0.2,0.3,0.1,0.8-0.3,1c-0.4-0.4-1-0.6-1.5-0.4c-0.6,0.2-0.8,0.8-0.9,1.3c0,0.3,0,0.5,0,0.8
		c0.1,1.3,0.8,1.8,2.1,1.5c-0.1,0.4,0.1,0.8,0.1,1.2c-1.1,0.7-2.7,0.4-3.4-0.8c-0.9-1.5-0.8-3,0.1-4.5
		C-318.8,20.2-316.4,20.1-315.8,21.5z"/>
	<path class="st23" d="M-312.5,22.7c0-1.3,0-2.6,0-3.9c0-0.3,0-0.5,0.4-0.5c1.3,0,1.3,0,1.3,1.3c0,2.3,0,4.6,0,7
		c0,0.4-0.1,0.5-0.5,0.5c-1.3,0-1.3,0-1.3-1.2C-312.5,24.8-312.5,23.8-312.5,22.7z"/>
</g>
<g>
	<g>
		<path class="st24" d="M-258.4,25.6h-1.4c-0.7,0-1.3-0.6-1.3-1.3v-2.9c0-0.7,0.6-1.3,1.3-1.3h4.5c0.7,0,1.3,0.6,1.3,1.3v2.9
			c0,0.7-0.6,1.3-1.3,1.3h-2l3,4.7h3.1l-1.7-2.7c0.9-0.6,1.5-1.5,1.5-2.7v-4.2c0-1.8-1.6-3.2-3.3-3.2h-5.6c-1.8,0-3.3,1.4-3.3,3.2
			V25c0,1.8,1.6,3.2,3.3,3.2h3.6L-258.4,25.6z"/>
	</g>
	<g>
		<path class="st24" d="M-242.2,28.2h-4.5c-1.8,0-3.3-1.4-3.3-3.2v-7.4h2.6v6.7c0,0.7,0.6,1.3,1.3,1.3h4V28.2z"/>
		<path class="st24" d="M-270.4,20.2h5.3v-2.6h-5.7c-1.6,0-2.9,1.3-2.9,3v0.5c0,1.7,1.3,3,2.9,3h2.7c0.4,0,0.7,0.3,0.7,0.7v0h0
			c0,0.4-0.3,0.7-0.7,0.7h-5.1v2.6h5.5c1.6,0,2.9-1.3,2.9-3v-0.5c0-1.7-1.3-3-2.9-3h-2.7c-0.4,0-0.7-0.3-0.7-0.7v0
			C-271.1,20.5-270.8,20.2-270.4,20.2"/>
	</g>
</g>
<g>
	<path class="st25" d="M-187.4,29.6h1.8v-4.8h4.5v-1.7h-4.5v-4.8h-1.8v4.8h-4.4v1.7h4.4V29.6z"/>
	<path class="st26" d="M-195.6,36.6h1.5v-4.3h4v-1.3h-4v-4.3h-1.5v4.3h-4v1.3h4V36.6z"/>
	<path class="st27" d="M-178.9,21.1h1.5v-4.3h4v-1.3h-4v-4.3h-1.5v4.3h-4v1.3h4V21.1z"/>
	<path class="st28" d="M-187.1,40h1.3v-3.1h2.7v-1.1h-2.7v-3.1h-1.3v3.1h-2.7v1.1h2.7V40z"/>
	<path class="st29" d="M-195.5,21.1h1.4v-4.3h4v-1.2h-4v-4.3h-1.4v4.3h-4v1.2h4V21.1z"/>
	<path class="st28" d="M-174.3,27.5h1.3v-3h2.7v-1.2h-2.7v-3h-1.3v3h-2.7v1.2h2.7V27.5z"/>
	<path class="st30" d="M-178.9,36.6h1.5v-4.3h4v-1.3h-4v-4.3h-1.5v4.3h-4v1.3h4V36.6z"/>
	<path class="st31" d="M-183.3,11.9V11h-2.7V8h-1V11h-2.7v0.9h2.7v2.9h1v-2.9H-183.3z M-200,27.3h1v-2.9h2.7v-0.9h-2.7v-2.9h-1v2.9
		h-2.7v1l2.7-0.1V27.3z"/>
</g>
<g id="g10" transform="matrix(1.25,0,0,-1.25,-37.439415,223.03962)">
	<path id="path20" class="st1" d="M-54,156.8c0.5,0,1,0,1.5,0c0.1,0.3,0.1,0.6,0.2,0.9c0.4,0,0.9,0,1.3,0c0.2,0,0.4,0.1,0.6,0.2
		c0.2,0.1,0.3,0.3,0.4,0.6c0.1,0.4,0.2,0.9,0.3,1.3c0.1,0.2,0.1,0.5-0.1,0.7c-0.2,0.2-0.4,0.2-0.6,0.2c-1.7,0-3.4,0-5.1,0
		c-0.2,0-0.3-0.1-0.5-0.1c-0.1,0.1-0.3,0.1-0.4,0.1c-0.8,0-1.6,0-2.3,0c0.1,0.3,0.1,0.6,0.2,0.9c-0.5,0-1,0-1.5,0
		c-0.1-0.3-0.1-0.6-0.2-0.8c-0.4,0-0.9,0-1.3,0c-0.2,0-0.4-0.1-0.5-0.2c-0.1,0.1-0.3,0.1-0.4,0.1c-1.5,0-2.9,0-4.4,0
		c0.1,0.3,0.1,0.6,0.2,0.9c-0.5,0-1,0-1.5,0c-0.3-1.3-0.6-2.6-0.9-3.9c0.5,0,1,0,1.5,0c0.2,0.7,0.3,1.3,0.5,2c0.2,0,0.3,0,0.5,0
		c0.1,0,0,0,0-0.1c-0.1-0.6-0.3-1.3-0.4-1.9c3.3,0,6.7,0,10,0c0.2,0,0.3,0,0.5,0.1c0.2-0.1,0.3-0.1,0.5-0.1l2.3,0
		C-53.9,157.4-54,157.1-54,156.8z M-60.6,159.7c-0.1,0-0.3,0-0.4,0c-0.1,0-0.1,0-0.1-0.1c-0.1-0.3-0.1-0.5-0.2-0.8
		c0-0.1,0-0.1,0.1-0.1c0.1,0,0.3,0,0.4,0C-60.7,159-60.6,159.4-60.6,159.7L-60.6,159.7z M-58,159.6c0.2,0,0.3,0,0.5,0
		c0.1,0,0.1,0,0.1-0.1c-0.1-0.2-0.1-0.5-0.2-0.7c0-0.1-0.1-0.1-0.1-0.1c-0.2,0-0.3,0-0.5,0c-0.1,0-0.1,0-0.1,0.1
		c0.1,0.2,0.1,0.5,0.2,0.7C-58.1,159.6-58.1,159.6-58,159.6z M-54.9,159.6c0.2,0,0.3,0,0.5,0c0.1,0,0.1,0,0.1-0.1
		c-0.1-0.2-0.1-0.5-0.2-0.7c0-0.1-0.1-0.1-0.1-0.1c-0.2,0-0.3,0-0.5,0c-0.1,0-0.1,0-0.1,0.1c0.1,0.2,0.1,0.5,0.2,0.7
		C-55,159.6-55,159.6-54.9,159.6L-54.9,159.6z M-52.1,158.7c0.1,0,0.3,0,0.4,0c0.1,0,0.1,0,0.1,0.1c0.1,0.3,0.1,0.5,0.2,0.8
		c0,0.1,0,0.1-0.1,0.1c-0.1,0-0.3,0-0.4,0C-51.9,159.3-52,159-52.1,158.7"/>
	<path id="path22" class="st32" d="M-58.4,160.5h1.9c0.3,0,0.5-0.2,0.4-0.5l-0.3-1.5c-0.1-0.3-0.4-0.5-0.7-0.5h-1.9
		c-0.3,0-0.5,0.2-0.4,0.5l0.3,1.5C-58.9,160.2-58.7,160.5-58.4,160.5L-58.4,160.5z M-58,159.9h0.9c0.2,0,0.3-0.1,0.2-0.3l-0.2-0.8
		c0-0.2-0.2-0.3-0.3-0.3h-0.9c-0.2,0-0.3,0.1-0.2,0.3l0.2,0.8C-58.3,159.7-58.2,159.9-58,159.9"/>
	<path id="path24" class="st32" d="M-55.2,160.5h1.9c0.3,0,0.5-0.2,0.4-0.5l-0.3-1.5c-0.1-0.3-0.4-0.5-0.7-0.5h-1.9
		c-0.3,0-0.5,0.2-0.4,0.5l0.3,1.5C-55.8,160.2-55.5,160.5-55.2,160.5z M-54.9,159.9h0.9c0.2,0,0.3-0.1,0.2-0.3l-0.2-0.8
		c0-0.2-0.2-0.3-0.3-0.3h-0.9c-0.2,0-0.3,0.1-0.2,0.3l0.2,0.8C-55.2,159.7-55,159.9-54.9,159.9"/>
	<path id="path26" class="st32" d="M-52.6,160.5h2.3c0.3,0,0.5-0.2,0.4-0.5l-0.3-1.5c-0.1-0.3-0.4-0.5-0.7-0.5l-2.3,0L-52.6,160.5z
		 M-52,159.9h1.1c0.2,0,0.3-0.1,0.2-0.3l-0.2-0.8c0-0.2-0.2-0.3-0.3-0.3h-1.1"/>
	<path id="path30" class="st32" d="M-59.6,157.9h-2.3c-0.3,0-0.5,0.2-0.4,0.5l0.3,1.5c0.1,0.3,0.4,0.5,0.7,0.5l2.3,0L-59.6,157.9
		L-59.6,157.9z M-60.2,158.5h-1.1c-0.2,0-0.3,0.1-0.2,0.3l0.2,0.8c0,0.2,0.2,0.3,0.3,0.3h1.1"/>
	<path id="path34" class="st32" d="M-67.4,160.5h1.7c0.3,0,0.5-0.2,0.4-0.5l-0.2-1.1h-0.7l0.2,0.8c0,0.2-0.1,0.3-0.2,0.3h-1.1
		c-0.2,0,0-0.1-0.1-0.3l-0.2-0.7h-0.7l0.2,1.1C-68,160.2-67.7,160.5-67.4,160.5"/>
	<path id="path36" class="st32" d="M-68.5,157.9l0.5,2.3h0.7l-0.5-2.3"/>
	<path id="path42" class="st32" d="M-62.6,157.9H-65c-0.3,0-0.5,0.2-0.4,0.5l0.1,0.4h0l0,0.1c0.1,0.3,0.4,0.5,0.7,0.5l1.7,0l0,0.1
		c0,0.1-0.1,0.3-0.2,0.3h-2l0.1,0.6l2.4,0c0.3,0,0.5-0.2,0.4-0.5l0-0.2h0l-0.1-0.3h0l-0.3-1.3h0L-62.6,157.9L-62.6,157.9z
		 M-64.5,158.5h1.3l0.1,0.4h-1.3c0,0,0,0,0,0l0,0c-0.1,0-0.2-0.1-0.2-0.2l0,0C-64.7,158.6-64.6,158.5-64.5,158.5
		C-64.5,158.5-64.5,158.5-64.5,158.5"/>
	<path id="path44" class="st33" d="M-58.4,160.5h1.9c0.3,0,0.5-0.2,0.4-0.5l-0.3-1.5c-0.1-0.3-0.4-0.5-0.7-0.5h-1.9
		c-0.3,0-0.5,0.2-0.4,0.5l0.3,1.5C-58.9,160.2-58.7,160.5-58.4,160.5L-58.4,160.5z M-58,159.9h0.9c0.2,0,0.3-0.1,0.2-0.3l-0.2-0.8
		c0-0.2-0.2-0.3-0.3-0.3h-0.9c-0.2,0-0.3,0.1-0.2,0.3l0.2,0.8C-58.3,159.7-58.2,159.9-58,159.9"/>
	<path id="path46" class="st33" d="M-55.2,160.5h1.9c0.3,0,0.5-0.2,0.4-0.5l-0.3-1.5c-0.1-0.3-0.4-0.5-0.7-0.5h-1.9
		c-0.3,0-0.5,0.2-0.4,0.5l0.3,1.5C-55.8,160.2-55.5,160.5-55.2,160.5z M-54.9,159.9h0.9c0.2,0,0.3-0.1,0.2-0.3l-0.2-0.8
		c0-0.2-0.2-0.3-0.3-0.3h-0.9c-0.2,0-0.3,0.1-0.2,0.3l0.2,0.8C-55.2,159.7-55,159.9-54.9,159.9"/>
	<path id="path48" class="st33" d="M-52.6,160.5l-0.5-2.1l-0.1-0.5l-0.2-0.9h0.7l0.2,0.9l1.5,0c0.3,0,0.6,0.2,0.7,0.5l0.3,1.5
		c0.1,0.3-0.1,0.5-0.4,0.5L-52.6,160.5L-52.6,160.5z M-52,159.9h1.1c0.2,0,0.3-0.1,0.2-0.3l-0.2-0.8c0-0.2-0.2-0.3-0.3-0.3h-1.1
		L-52,159.9z"/>
	<path id="path52" class="st33" d="M-59.6,161.4l-0.2-0.9l-1.5,0c-0.3,0-0.6-0.2-0.7-0.5l-0.3-1.5c-0.1-0.3,0.1-0.5,0.4-0.5h2.3
		l0.6,2.6l0.2,0.9H-59.6L-59.6,161.4z M-61,159.9h1.1l-0.3-1.4h-1.1c-0.2,0-0.3,0.1-0.2,0.3l0.2,0.8
		C-61.3,159.8-61.1,159.9-61,159.9z"/>
	<path id="path56" class="st33" d="M-67.8,161.4l-0.3-1.3h0l0-0.1c0,0,0,0,0,0l-0.2-1.1h0l-0.2-0.9h0.7l0.2,0.9h0l0.2,0.7
		c0,0,0,0,0,0l0.1,0.3h1.1c0.2,0,0.3-0.1,0.2-0.3l-0.2-0.8l-0.2-0.9h0.7l0.2,0.9h0l0.2,1.1c0.1,0.3-0.1,0.5-0.4,0.5h-1.5l0.2,0.9
		H-67.8L-67.8,161.4z"/>
	<path id="path64" class="st33" d="M-62.6,157.9H-65c-0.3,0-0.5,0.2-0.4,0.5l0.1,0.4h0l0,0.1c0.1,0.3,0.4,0.5,0.7,0.5l1.7,0l0,0.1
		c0,0.1-0.1,0.3-0.2,0.3h-2l0.1,0.6l2.4,0c0.3,0,0.5-0.2,0.4-0.5l0-0.2h0l-0.1-0.3h0l-0.3-1.3h0L-62.6,157.9L-62.6,157.9z
		 M-64.5,158.5h1.3l0.1,0.4h-1.3c0,0,0,0,0,0l0,0c-0.1,0-0.2-0.1-0.2-0.2l0,0C-64.7,158.6-64.6,158.5-64.5,158.5
		C-64.5,158.5-64.5,158.5-64.5,158.5"/>
	<path id="path66" class="st1" d="M-74.7,159.5c0-0.1-0.1-0.2-0.1-0.2c-0.1-0.1-0.1-0.1-0.2-0.2c-0.1-0.1-0.1-0.1-0.1-0.2
		c0-0.1,0.1-0.3,0.2-0.4c0.1-0.1,0.4-0.3,0.6-0.2c0-0.1,0-0.1-0.1-0.2c-0.1-0.3,0.2-0.3,0.4-0.4c0.2,0,0.6-0.2,0.7,0.1
		c0,0.1,0,0.2,0,0.3c0.1,0.1,0.1,0.1,0.1,0.2c0.1,0.1,0.1,0.1,0,0.2c0,0,0,0,0,0.1c0.2,0,0.4,0,0.6,0c-0.1,0-0.1-0.1-0.2-0.1
		c-0.2-0.1,0-0.4,0.1-0.5c0.2-0.3,0.3-0.5,0.6-0.3c0.1,0.1,0.1,0.1,0.2,0.2c0,0,0.2,0.2,0.3,0.3c0,0,0.1-0.1,0.2-0.1
		c0.1,0,0.3,0,0.4,0c0.2,0,0.3,0,0.3,0.2c0,0.1,0,0.1,0,0.2c0,0.1,0,0.2,0,0.3c0,0.1,0,0.2-0.1,0.3c0,0.1-0.1,0.2-0.1,0.3
		c0,0,0,0.1,0,0.1c0.1-0.1,0.1-0.1,0.2-0.2c0.1-0.1,0.2-0.2,0.4-0.2c0.2,0,0.4,0.2,0.5,0.3c0,0.1,0,0.1,0.1,0.2
		c0.3-0.1,0.6,0,0.9,0.1c0.4,0.2,0.5,0.6,0.6,1c0,0.3,0,0.9-0.2,1.2c0,0.1-0.3,0.2-0.4,0.1c-0.1-0.1-0.1-0.2-0.2-0.2
		c-0.1-0.1-0.1-0.1-0.2-0.1c0,0.1-0.1,0.2-0.2,0.3c-0.1,0.1-0.1,0.1-0.2,0.2c-0.2,0.1-0.3,0.3-0.5,0.4c-0.5,0.4-0.9,0.4-1.6,0.1
		c-0.3-0.1-0.4-0.3-0.6-0.5c-0.1,0-0.2,0-0.3-0.1c-0.1-0.1-0.2-0.2-0.2-0.2c-0.6-0.1-0.9-0.2-1.3-0.5c-0.2-0.1-0.3-0.3-0.4-0.5
		c-0.1-0.1-0.2-0.2-0.3-0.2c-0.1,0-0.1,0-0.1,0c0.1,0.1,0.1,0.2,0.1,0.3c0.1,0,0.1-0.1,0.1-0.1c0,0.1,0,0.3-0.1,0.3
		c0,0,0,0.1,0.1,0.1c-0.2,0-0.7-0.4-0.4-0.7c0-0.1,0-0.1,0.1-0.2c0.1-0.1,0.2-0.2,0.3-0.1c0-0.2,0-0.3,0-0.6
		C-74.7,159.6-74.7,159.6-74.7,159.5"/>
	<path id="path68" d="M-74.7,159.5C-74.7,159.4-74.7,159.4-74.7,159.5l-0.1-0.1C-74.7,159.4-74.7,159.5-74.7,159.5L-74.7,159.5z
		 M-74.7,159.4c0,0,0-0.1-0.1-0.1l-0.1,0C-74.8,159.3-74.8,159.4-74.7,159.4C-74.8,159.4-74.7,159.4-74.7,159.4z M-74.7,159.2
		L-74.7,159.2L-74.7,159.2C-74.8,159.2-74.7,159.2-74.7,159.2z M-74.8,159.2c0,0-0.1-0.1-0.1-0.1l-0.1,0.1
		C-74.9,159.2-74.8,159.2-74.8,159.2L-74.8,159.2z M-74.9,159.1c0,0-0.1-0.1-0.1-0.1l-0.1,0.1C-75,159.1-75,159.1-74.9,159.1
		L-74.9,159.1z M-75,159C-75,159-75,159-75,159L-75,159C-75,159-75,159-75,159L-75,159z M-75,159c0,0-0.1-0.1,0-0.1l-0.1,0
		C-75.1,158.9-75.1,159-75,159L-75,159z M-75,158.8c0-0.1,0-0.1,0.1-0.2l-0.1,0C-75.1,158.7-75.1,158.8-75,158.8L-75,158.8z
		 M-75,158.6c0-0.1,0.1-0.1,0.1-0.2l-0.1-0.1C-75,158.5-75,158.5-75,158.6C-75,158.6-75,158.6-75,158.6z M-74.8,158.5
		c0.1-0.1,0.2-0.2,0.3-0.2l0-0.1C-74.7,158.2-74.8,158.3-74.8,158.5L-74.8,158.5z M-74.5,158.3c0.1,0,0.2,0,0.2,0l0-0.1
		C-74.4,158.2-74.5,158.2-74.5,158.3C-74.6,158.2-74.5,158.3-74.5,158.3z M-74.3,158.3L-74.3,158.3L-74.3,158.3L-74.3,158.3
		L-74.3,158.3z M-74.3,158.2c0,0,0-0.1,0-0.1l-0.1,0C-74.4,158.2-74.3,158.2-74.3,158.2C-74.3,158.2-74.3,158.2-74.3,158.2z
		 M-74.3,158.1C-74.3,158.1-74.3,158-74.3,158.1l-0.1-0.1C-74.4,158.1-74.4,158.1-74.3,158.1C-74.4,158.1-74.3,158.1-74.3,158.1z
		 M-74.3,158c-0.1-0.1,0-0.2,0.1-0.3l0-0.1C-74.4,157.8-74.5,157.9-74.3,158C-74.4,158-74.3,158-74.3,158z M-74.2,157.8
		c0.1,0,0.1,0,0.2-0.1l0-0.1C-74.1,157.6-74.2,157.7-74.2,157.8C-74.3,157.7-74.2,157.8-74.2,157.8z M-74,157.7
		C-74,157.7-74,157.7-74,157.7L-74,157.7C-74,157.6-74,157.6-74,157.7L-74,157.7z M-74,157.7c0.1,0,0.2-0.1,0.4-0.1l0-0.1
		C-73.7,157.5-73.9,157.6-74,157.7L-74,157.7z M-73.6,157.6c0.1,0,0.2,0,0.3,0.1l0.1,0C-73.3,157.6-73.4,157.5-73.6,157.6
		L-73.6,157.6z M-73.3,157.7c0,0,0,0.1,0,0.1l0.1,0C-73.2,157.8-73.2,157.7-73.3,157.7L-73.3,157.7z M-73.3,157.8c0,0,0,0.1,0,0.1
		l0.1,0C-73.2,157.9-73.2,157.9-73.3,157.8C-73.2,157.8-73.3,157.8-73.3,157.8z M-73.3,158L-73.3,158L-73.3,158L-73.3,158z
		 M-73.3,158c0,0.1,0.1,0.1,0.1,0.2l0.1,0C-73.2,158.1-73.2,158.1-73.3,158C-73.2,157.9-73.3,158-73.3,158z M-73.2,158.2
		C-73.2,158.2-73.2,158.2-73.2,158.2L-73.2,158.2C-73.1,158.2-73.1,158.1-73.2,158.2C-73.1,158.1-73.2,158.2-73.2,158.2z
		 M-73.2,158.2C-73.2,158.2-73.1,158.3-73.2,158.2l0.1,0.1C-73.1,158.2-73.1,158.2-73.2,158.2C-73.1,158.2-73.2,158.2-73.2,158.2z
		 M-73.1,158.3c0,0,0,0.1,0,0.1l0.1,0C-73.1,158.4-73.1,158.3-73.1,158.3C-73.1,158.3-73.1,158.3-73.1,158.3z M-73.1,158.4
		C-73.1,158.4-73.1,158.4-73.1,158.4L-73.1,158.4C-73.1,158.4-73.1,158.4-73.1,158.4C-73.1,158.4-73.1,158.4-73.1,158.4z
		 M-73.2,158.5C-73.2,158.5-73.2,158.5-73.2,158.5L-73.2,158.5C-73.1,158.5-73.1,158.5-73.2,158.5
		C-73.1,158.5-73.2,158.5-73.2,158.5z M-73.2,158.5L-73.2,158.5L-73.2,158.5L-73.2,158.5L-73.2,158.5z M-73.1,158.5
		c0.1,0,0.2,0,0.3,0l0-0.1C-72.9,158.4-73,158.4-73.1,158.5L-73.1,158.5z M-72.8,158.5c0.1,0,0.2,0,0.3,0l0-0.1
		C-72.6,158.4-72.7,158.4-72.8,158.5C-72.8,158.4-72.8,158.5-72.8,158.5z M-72.5,158.5L-72.5,158.5L-72.5,158.5L-72.5,158.5z
		 M-72.5,158.5c-0.1,0-0.1-0.1-0.2-0.1l0,0.1C-72.6,158.5-72.6,158.5-72.5,158.5L-72.5,158.5L-72.5,158.5z M-72.7,158.4
		C-72.7,158.3-72.7,158.3-72.7,158.4L-72.7,158.4C-72.7,158.4-72.7,158.4-72.7,158.4C-72.7,158.4-72.7,158.4-72.7,158.4z
		 M-72.7,158.3c-0.1,0-0.1-0.1-0.1-0.2l-0.1,0C-72.8,158.2-72.8,158.3-72.7,158.3L-72.7,158.3z M-72.7,158.1c0-0.1,0.1-0.2,0.1-0.3
		l-0.1,0C-72.7,157.9-72.8,158-72.7,158.1C-72.8,158.1-72.7,158.1-72.7,158.1z M-72.6,157.9c0.1-0.1,0.2-0.2,0.3-0.3l0-0.1
		C-72.5,157.6-72.6,157.7-72.6,157.9C-72.7,157.8-72.6,157.9-72.6,157.9z M-72.3,157.6c0.1-0.1,0.2-0.1,0.3,0l0-0.1
		C-72.1,157.4-72.3,157.4-72.3,157.6C-72.4,157.5-72.3,157.6-72.3,157.6z M-72,157.6c0.1,0,0.1,0.1,0.1,0.1l0.1,0
		C-71.9,157.6-71.9,157.6-72,157.6L-72,157.6z M-71.9,157.7C-71.9,157.7-71.9,157.7-71.9,157.7l0.1,0
		C-71.8,157.7-71.8,157.7-71.9,157.7C-71.8,157.7-71.9,157.7-71.9,157.7z M-71.8,157.8L-71.8,157.8L-71.8,157.8
		C-71.8,157.7-71.8,157.8-71.8,157.8z M-71.8,157.8c0,0,0.1,0.1,0.2,0.2l0-0.1C-71.7,157.8-71.8,157.7-71.8,157.8
		C-71.8,157.7-71.8,157.8-71.8,157.8z M-71.6,157.9c0,0,0.1,0.1,0.1,0.1l0-0.1C-71.5,157.9-71.5,157.9-71.6,157.9
		C-71.6,157.9-71.6,157.9-71.6,157.9z M-71.5,158L-71.5,158L-71.5,158L-71.5,158L-71.5,158z M-71.5,158C-71.4,158-71.4,158-71.5,158
		l0.1-0.1C-71.5,157.9-71.5,158-71.5,158L-71.5,158z M-71.4,158c0,0,0.1,0,0.1,0l0-0.1C-71.3,157.9-71.4,157.9-71.4,158L-71.4,158z
		 M-71.3,158c0,0,0.2,0,0.3,0v-0.1C-71.1,157.9-71.2,157.9-71.3,158C-71.3,157.9-71.3,158-71.3,158z M-71,158
		C-70.9,158-70.9,158-71,158L-71,158C-70.9,157.9-70.9,157.9-71,158L-71,158L-71,158z M-70.9,158c0.1,0,0.2,0,0.2,0l0-0.1
		C-70.7,157.9-70.8,157.9-70.9,158L-70.9,158L-70.9,158z M-70.7,158c0,0,0.1,0.1,0.1,0.2l0.1,0C-70.6,158-70.6,158-70.7,158
		L-70.7,158z M-70.6,158.2C-70.6,158.2-70.6,158.2-70.6,158.2l0.1,0.1C-70.5,158.2-70.5,158.2-70.6,158.2L-70.6,158.2z M-70.6,158.3
		C-70.6,158.3-70.6,158.3-70.6,158.3l0,0.1C-70.6,158.3-70.6,158.3-70.6,158.3L-70.6,158.3L-70.6,158.3z M-70.7,158.3L-70.7,158.3
		L-70.7,158.3L-70.7,158.3z M-70.7,158.4c0,0.1,0,0.1,0,0.2l0.1,0C-70.6,158.5-70.6,158.4-70.7,158.4L-70.7,158.4L-70.7,158.4z
		 M-70.7,158.5c0,0.1,0,0.1,0,0.2l0.1,0C-70.6,158.6-70.6,158.6-70.7,158.5L-70.7,158.5L-70.7,158.5z M-70.7,158.7
		c0,0.1,0,0.1,0,0.1l0.1,0C-70.6,158.8-70.6,158.7-70.7,158.7L-70.7,158.7z M-70.7,158.8c0,0,0,0.1-0.1,0.1l0.1,0
		C-70.7,158.9-70.6,158.9-70.7,158.8L-70.7,158.8z M-70.7,159c0,0,0,0.1,0,0.1l0.1,0C-70.7,159.1-70.7,159-70.7,159L-70.7,159z
		 M-70.7,159.1L-70.7,159.1L-70.7,159.1L-70.7,159.1z M-70.8,159.1c0,0.1,0,0.1-0.1,0.2l0.1,0C-70.8,159.2-70.7,159.2-70.8,159.1
		C-70.7,159.1-70.8,159.1-70.8,159.1z M-70.9,159.2L-70.9,159.2L-70.9,159.2L-70.9,159.2z M-70.9,159.3
		C-70.9,159.3-70.9,159.3-70.9,159.3L-70.9,159.3C-70.8,159.3-70.8,159.3-70.9,159.3L-70.9,159.3L-70.9,159.3z M-70.9,159.3
		C-70.9,159.3-70.9,159.4-70.9,159.3L-70.9,159.3C-70.8,159.4-70.8,159.3-70.9,159.3L-70.9,159.3L-70.9,159.3z M-70.8,159.4
		L-70.8,159.4L-70.8,159.4L-70.8,159.4L-70.8,159.4z M-70.8,159.4c0,0,0.1-0.1,0.1-0.1l-0.1-0.1C-70.8,159.3-70.8,159.3-70.8,159.4
		L-70.8,159.4z M-70.7,159.3L-70.7,159.3l0-0.1L-70.7,159.3L-70.7,159.3L-70.7,159.3z M-70.6,159.2c0.1-0.1,0.1-0.1,0.2-0.1l0-0.1
		C-70.5,159.1-70.6,159.1-70.6,159.2L-70.6,159.2L-70.6,159.2z M-70.4,159.1c0.1,0,0.1-0.1,0.2,0l0-0.1
		C-70.3,159-70.4,159-70.4,159.1L-70.4,159.1z M-70.2,159c0.1,0,0.2,0,0.3,0.1l0-0.1C-70,159-70.1,159-70.2,159L-70.2,159z
		 M-70,159.1c0.1,0.1,0.1,0.1,0.2,0.2l0.1,0C-69.7,159.2-69.8,159.1-70,159.1L-70,159.1z M-69.8,159.4
		C-69.8,159.4-69.8,159.4-69.8,159.4L-69.8,159.4C-69.7,159.4-69.7,159.4-69.8,159.4L-69.8,159.4z M-69.8,159.4
		C-69.8,159.5-69.7,159.5-69.8,159.4l0.1,0.1C-69.7,159.5-69.7,159.5-69.8,159.4L-69.8,159.4z M-69.7,159.5L-69.7,159.5L-69.7,159.5
		L-69.7,159.5L-69.7,159.5z M-69.7,159.6c0.1,0,0.3,0,0.5,0l0-0.1C-69.4,159.5-69.5,159.5-69.7,159.6L-69.7,159.6z M-69.2,159.5
		c0.1,0,0.3,0,0.4,0.1l0-0.1C-68.9,159.5-69.1,159.5-69.2,159.5L-69.2,159.5z M-68.8,159.7c0.2,0.1,0.3,0.2,0.4,0.4l0.1,0
		C-68.5,159.8-68.6,159.7-68.8,159.7L-68.8,159.7z M-68.5,160L-68.5,160L-68.5,160L-68.5,160L-68.5,160z M-68.5,160
		c0.1,0.2,0.2,0.4,0.2,0.6l0.1,0C-68.2,160.4-68.3,160.2-68.5,160L-68.5,160z M-68.3,160.6c0,0.2,0,0.4,0,0.7l0.1,0
		C-68.2,161.1-68.2,160.8-68.3,160.6L-68.3,160.6L-68.3,160.6z M-68.3,161.3c0,0.2-0.1,0.4-0.2,0.5l0.1,0
		C-68.3,161.7-68.3,161.5-68.3,161.3L-68.3,161.3z M-68.5,161.8C-68.5,161.8-68.5,161.9-68.5,161.8L-68.5,161.8
		C-68.4,161.9-68.4,161.9-68.5,161.8L-68.5,161.8L-68.5,161.8z M-68.5,161.9c0,0-0.1,0.1-0.1,0.1l0,0.1
		C-68.5,162-68.5,162-68.5,161.9L-68.5,161.9L-68.5,161.9z M-68.6,161.9c0,0-0.1,0-0.1,0l0,0.1C-68.7,162-68.7,162-68.6,161.9
		L-68.6,161.9L-68.6,161.9z M-68.7,162C-68.7,161.9-68.8,161.9-68.7,162L-68.7,162C-68.8,162-68.8,162-68.7,162L-68.7,162L-68.7,162
		z M-68.8,161.9c0,0-0.1-0.1-0.1-0.1l-0.1,0C-68.9,161.9-68.8,162-68.8,161.9L-68.8,161.9z M-68.8,161.8c0-0.1-0.1-0.1-0.1-0.1
		l0,0.1C-69,161.8-68.9,161.8-68.8,161.8L-68.8,161.8L-68.8,161.8z M-69,161.7c-0.1,0-0.1-0.1-0.2-0.1l0,0.1
		C-69.1,161.7-69.1,161.7-69,161.7L-69,161.7L-69,161.7z M-69.1,161.6C-69.1,161.6-69.2,161.6-69.1,161.6L-69.1,161.6
		C-69.2,161.7-69.2,161.7-69.1,161.6L-69.1,161.6z M-69.2,161.6L-69.2,161.6L-69.2,161.6L-69.2,161.6L-69.2,161.6L-69.2,161.6z
		 M-69.2,161.6c0,0.1-0.1,0.1-0.1,0.2l0.1,0C-69.2,161.8-69.2,161.7-69.2,161.6L-69.2,161.6L-69.2,161.6z M-69.3,161.8
		c0,0.1-0.1,0.1-0.1,0.2l0.1,0C-69.3,161.9-69.3,161.9-69.3,161.8L-69.3,161.8z M-69.4,161.9C-69.4,162-69.5,162-69.4,161.9
		l-0.1,0.2C-69.4,162.1-69.4,162-69.4,161.9L-69.4,161.9L-69.4,161.9z M-69.5,162c0,0-0.1,0.1-0.1,0.1l0,0.1
		C-69.5,162.1-69.5,162.1-69.5,162L-69.5,162L-69.5,162z M-69.6,162.1c-0.1,0.1-0.2,0.2-0.3,0.3l0,0.1
		C-69.8,162.3-69.7,162.2-69.6,162.1L-69.6,162.1z M-70,162.4c0,0-0.1,0.1-0.1,0.1l0,0.1C-70,162.5-70,162.5-70,162.4L-70,162.4
		L-70,162.4z M-70.1,162.5c-0.2,0.2-0.5,0.3-0.7,0.3l0,0.1C-70.6,162.9-70.3,162.8-70.1,162.5L-70.1,162.5L-70.1,162.5z
		 M-70.8,162.8c-0.2,0-0.5-0.1-0.8-0.2l0,0.1C-71.4,162.8-71.1,162.9-70.8,162.8L-70.8,162.8z M-71.6,162.6
		c-0.1-0.1-0.3-0.1-0.3-0.2l0,0.1C-71.9,162.6-71.8,162.6-71.6,162.6C-71.7,162.7-71.6,162.6-71.6,162.6z M-72,162.4
		c-0.1-0.1-0.2-0.2-0.3-0.3l-0.1,0C-72.2,162.3-72.1,162.4-72,162.4C-72,162.5-72,162.4-72,162.4z M-72.2,162.1L-72.2,162.1
		L-72.2,162.1L-72.2,162.1L-72.2,162.1z M-72.3,162.1c-0.1,0-0.1,0-0.1,0l0,0.1C-72.4,162.2-72.3,162.2-72.3,162.1L-72.3,162.1z
		 M-72.4,162.1c0,0-0.1,0-0.1-0.1l0,0.1C-72.5,162.1-72.5,162.1-72.4,162.1L-72.4,162.1z M-72.6,162c0,0-0.1-0.1-0.1-0.1l-0.1,0.1
		C-72.7,162-72.6,162-72.6,162C-72.6,162-72.6,162-72.6,162z M-72.7,161.9L-72.7,161.9L-72.7,161.9L-72.7,161.9L-72.7,161.9z
		 M-72.7,161.9c0,0-0.1-0.1-0.1-0.1l-0.1,0.1C-72.8,161.8-72.8,161.9-72.7,161.9L-72.7,161.9z M-72.8,161.7L-72.8,161.7L-72.8,161.7
		L-72.8,161.7L-72.8,161.7z M-72.8,161.7c-0.3,0-0.5-0.1-0.7-0.2l0,0.1C-73.4,161.7-73.1,161.8-72.8,161.7
		C-72.8,161.8-72.8,161.7-72.8,161.7z M-73.5,161.6c-0.2-0.1-0.4-0.2-0.6-0.4l0,0.1C-74,161.4-73.8,161.5-73.5,161.6L-73.5,161.6z
		 M-74.1,161.2c-0.1-0.1-0.1-0.1-0.2-0.2l-0.1,0C-74.3,161.1-74.3,161.2-74.1,161.2L-74.1,161.2z M-74.3,161
		c-0.1-0.1-0.1-0.2-0.1-0.2l-0.1,0C-74.5,160.9-74.4,160.9-74.3,161L-74.3,161z M-74.5,160.7L-74.5,160.7L-74.5,160.7L-74.5,160.7z
		 M-74.5,160.7c0,0-0.1-0.1-0.1-0.1l0,0.1C-74.6,160.7-74.6,160.7-74.5,160.7L-74.5,160.7z M-74.6,160.6c0,0-0.1-0.1-0.2-0.1l0,0.1
		C-74.7,160.6-74.7,160.6-74.6,160.6L-74.6,160.6z M-74.8,160.5L-74.8,160.5L-74.8,160.5L-74.8,160.5z M-74.8,160.5
		C-74.8,160.5-74.8,160.5-74.8,160.5L-74.8,160.5C-74.8,160.6-74.8,160.6-74.8,160.5L-74.8,160.5z M-74.9,160.5L-74.9,160.5
		L-74.9,160.5L-74.9,160.5L-74.9,160.5z M-74.9,160.5C-74.9,160.5-74.9,160.5-74.9,160.5l0,0.1C-74.8,160.6-74.8,160.6-74.9,160.5
		C-74.8,160.6-74.9,160.5-74.9,160.5z M-74.9,160.6L-74.9,160.6L-74.9,160.6L-74.9,160.6C-74.9,160.6-74.9,160.6-74.9,160.6z
		 M-74.9,160.6c0.1,0.1,0.1,0.2,0.1,0.3l0.1,0C-74.8,160.7-74.8,160.6-74.9,160.6C-74.9,160.5-74.9,160.6-74.9,160.6z M-74.8,160.9
		C-74.8,160.9-74.8,160.9-74.8,160.9L-74.8,160.9C-74.7,160.9-74.7,160.9-74.8,160.9L-74.8,160.9z M-74.8,160.9L-74.8,160.9
		L-74.8,160.9L-74.8,160.9L-74.8,160.9z M-74.8,160.9c0.1,0,0.1,0,0.1-0.1l-0.1,0C-74.7,160.8-74.8,160.9-74.8,160.9L-74.8,160.9
		L-74.8,160.9z M-74.7,160.8C-74.7,160.8-74.6,160.8-74.7,160.8L-74.7,160.8C-74.7,160.8-74.7,160.8-74.7,160.8L-74.7,160.8
		L-74.7,160.8z M-74.6,160.8L-74.6,160.8L-74.6,160.8L-74.6,160.8C-74.7,160.8-74.6,160.8-74.6,160.8z M-74.7,160.8
		c0,0.1,0,0.1,0,0.2l0.1,0C-74.6,160.9-74.6,160.8-74.7,160.8C-74.6,160.8-74.7,160.8-74.7,160.8z M-74.7,161
		C-74.7,161-74.7,161-74.7,161l0,0.2C-74.7,161.1-74.6,161-74.7,161L-74.7,161L-74.7,161z M-74.8,161.1L-74.8,161.1L-74.8,161.1
		L-74.8,161.1L-74.8,161.1z M-74.8,161.1C-74.8,161.1-74.8,161.1-74.8,161.1L-74.8,161.1C-74.7,161.1-74.7,161.1-74.8,161.1
		C-74.7,161.1-74.8,161.1-74.8,161.1z M-74.8,161.2C-74.7,161.2-74.7,161.2-74.8,161.2l0.1,0.1C-74.7,161.2-74.7,161.2-74.8,161.2
		L-74.8,161.2z M-74.7,161.3L-74.7,161.3L-74.7,161.3L-74.7,161.3L-74.7,161.3L-74.7,161.3z M-74.7,161.2c-0.1,0-0.2-0.1-0.3-0.2
		l-0.1,0.1C-74.9,161.2-74.8,161.3-74.7,161.2C-74.7,161.3-74.7,161.2-74.7,161.2z M-75,161c0,0-0.1-0.1-0.1-0.1l-0.1,0
		C-75.2,160.9-75.1,161-75,161L-75,161z M-75.1,160.8c0,0,0-0.1,0-0.1l-0.1,0C-75.2,160.8-75.2,160.8-75.1,160.8L-75.1,160.8z
		 M-75.1,160.7c0,0,0-0.1,0.1-0.1l-0.1-0.1C-75.2,160.6-75.2,160.6-75.1,160.7L-75.1,160.7z M-75.1,160.6L-75.1,160.6L-75.1,160.6
		L-75.1,160.6z M-75.1,160.6C-75.1,160.5-75,160.5-75.1,160.6l0-0.1C-75.1,160.5-75.1,160.5-75.1,160.6L-75.1,160.6z M-75,160.5
		C-75,160.4-75,160.4-75,160.5l0-0.1C-75.1,160.4-75.1,160.4-75,160.5C-75.1,160.4-75,160.5-75,160.5z M-75,160.4
		c0-0.1,0.1-0.1,0.1-0.1l0-0.1C-75,160.2-75,160.3-75,160.4C-75.1,160.4-75,160.4-75,160.4z M-74.9,160.3c0.1,0,0.1,0,0.2,0l0-0.1
		C-74.8,160.2-74.8,160.2-74.9,160.3C-74.9,160.2-74.9,160.3-74.9,160.3z M-74.7,160.3L-74.7,160.3L-74.7,160.3L-74.7,160.3
		L-74.7,160.3z M-74.7,160.3c0-0.1,0-0.2,0-0.3l-0.1,0C-74.8,160.1-74.7,160.2-74.7,160.3L-74.7,160.3z M-74.7,160
		c0-0.1,0-0.2,0-0.3l-0.1,0C-74.8,159.8-74.8,159.9-74.7,160C-74.8,160-74.7,160-74.7,160z M-74.7,159.7
		C-74.7,159.6-74.7,159.6-74.7,159.7L-74.7,159.7C-74.7,159.6-74.7,159.6-74.7,159.7C-74.7,159.7-74.7,159.7-74.7,159.7z
		 M-74.7,159.6C-74.7,159.6-74.7,159.5-74.7,159.6l-0.1-0.1C-74.7,159.5-74.7,159.5-74.7,159.6L-74.7,159.6z M-74.7,159.5
		L-74.7,159.5L-74.7,159.5"/>
	<path id="path70" class="st34" d="M-72.8,161.7l-0.5-0.1l-0.4-0.2l-0.4-0.2l-0.4-0.4l-0.2-0.2l-0.2-0.1l-0.1,0.1l0.1,0.1l0,0.2
		l0.1,0l0.1-0.1l0,0.2l-0.1,0l0,0.1l-0.2-0.1l-0.2-0.2l0-0.2l0.1-0.1l0.1-0.2l0.1-0.1l0.1,0l0.1,0.1l-0.1-0.4l0.1-0.5l-0.1-0.2
		l-0.3-0.3l0.1-0.2l0.1-0.2l0.3-0.2l0.1,0l0.2,0l-0.1-0.4l0.4-0.2l0.5-0.1l0.2,0.1l0,0.3l0.2,0.3l0,0.2l0.4,0l0.4,0l-0.4-0.2
		l0.1-0.3l0.2-0.4l0.2-0.1l0.2,0.1l0.1,0.2l0.4,0.3l0.1-0.1l0.6,0l0.1,0.1l0,0.2l0,0.1l0,0.5l-0.2,0.4l0,0.2l0.1-0.1l0.4-0.3l0.2,0
		l0.2,0.1l0.2,0.1l0.1,0.3l0.6,0l0.3,0.1l0.3,0.3l0.2,0.4l0,0.4l0,0.5l-0.1,0.5l-0.1,0.1l-0.2,0l-0.3-0.3l-0.2-0.1l-0.2,0.4
		l-0.2,0.2l-0.1,0.1l-0.5,0.4l-0.4,0.2l-0.4,0l-0.4-0.1l-0.4-0.1l-0.3-0.2l-0.2-0.2l-0.2-0.1L-72.8,161.7L-72.8,161.7z"/>
	<path id="path72" class="st35" d="M-74.2,160.6c-0.4-0.5-0.3-1.1-0.2-1.7c-0.1,0.2-0.1,0.3-0.2,0.5c0,0.1,0,0.3-0.1,0.4
		c0,0.1,0,0.3,0,0.4c0.1,0.1,0.1,0.3,0.2,0.4c0.1,0.1,0.2,0.3,0.3,0.4c0.1,0.1,0.3,0.2,0.4,0.3c0.1,0.1,0.3,0.1,0.4,0.2
		c0.2,0,0.3,0,0.5,0.1c-0.2-0.2-0.3-0.4-0.5-0.6C-73.7,161-73.9,160.9-74.2,160.6"/>
	<path id="path74" class="st35" d="M-72.3,162.1c-0.3-0.3-0.4-0.5-0.6-0.8c-0.1-0.2-0.3-0.5-0.4-0.7c-0.1-0.1-0.1-0.2-0.1-0.4
		c-0.1,0.1-0.1,0.2-0.2,0.2c0,0.1,0.1,0.2,0.1,0.3c0.1,0.2,0.2,0.4,0.3,0.6c0.2,0.2,0.5,0.5,0.7,0.7
		C-72.4,162.1-72.3,162.1-72.3,162.1"/>
	<path id="path76" class="st35" d="M-70.8,162.8c-0.2-0.1-0.6-0.1-0.6-0.4c0-0.2,0-0.3,0.1-0.5c-0.3,0.3-0.4,0.2-0.9,0.2
		c0.1,0.1,0.2,0.2,0.2,0.3c0.1,0.1,0.3,0.2,0.4,0.3c0.2,0,0.3,0.1,0.5,0.1C-71,162.8-70.9,162.8-70.8,162.8"/>
	<path id="path78" class="st36" d="M-70.2,159.2c0.1,0,0.1-0.1,0.1-0.1c0.1,0,0.1,0,0.2,0.1c0,0.1,0.1,0.1,0.1,0.2
		c0,0.1,0.1,0.2,0.1,0.2c0,0-0.1,0.1-0.1,0.1c-0.2,0-0.3,0-0.5-0.1c0,0,0-0.1,0-0.1c0,0,0-0.1,0-0.1c0,0,0-0.1,0-0.1
		C-70.3,159.2-70.3,159.2-70.2,159.2C-70.2,159.2-70.2,159.2-70.2,159.2"/>
	<path id="path80" class="st36" d="M-70.2,160c-0.2-0.1-0.2-0.1-0.3-0.3C-70.5,159.9-70.4,159.9-70.2,160"/>
	<path id="path82" class="st36" d="M-68.6,161.9c0,0-0.1,0-0.1-0.1c-0.1-0.1-0.1-0.2-0.2-0.2c0,0-0.1-0.1-0.2-0.1c0,0-0.1,0-0.1,0
		c0,0,0,0,0.1,0c0,0,0.1,0,0.1,0c0.1,0,0.1,0.1,0.2,0.1c0,0,0.1,0.1,0.1,0.1C-68.7,161.7-68.6,161.8-68.6,161.9"/>
	<path id="path84" class="st36" d="M-72.5,161.3c-0.1-0.3-0.2-0.5-0.3-0.7c0.2,0.2,0.3,0.4,0.4,0.6c0,0.1,0,0.2,0.2,0.2
		c0-0.1,0-0.2,0-0.3c0.1,0.5,0.2,0.6,0.7,0.8c-0.1,0-0.2,0-0.3,0c-0.1,0-0.2,0-0.3-0.1c-0.1-0.1-0.1-0.2-0.2-0.2
		C-72.5,161.5-72.5,161.4-72.5,161.3"/>
	<path id="path86" class="st36" d="M-71.7,161.3c0.1-0.4,0.2-0.8,0.3-1.2c0-0.3,0-0.4-0.1-0.6c-0.2,0-0.2,0-0.4-0.1
		c-0.6-0.2-0.9-0.5-1.3,0.1c0.1-0.1,0.3-0.1,0.4-0.2c0.1,0,0.2,0,0.3,0.1c0.2,0.1,0.3,0.2,0.5,0.3c0.1,0,0.2,0,0.4,0.1
		c0,0.2,0.1,0.3,0.1,0.5c0,0.2-0.1,0.4-0.1,0.7c0,0.1,0,0.2,0,0.3C-71.7,161.2-71.7,161.3-71.7,161.3"/>
	<path id="path88" class="st36" d="M-70.7,158.7c0-0.3,0.1-0.5,0-0.6c0,0,0-0.1-0.1-0.1c-0.1,0-0.2,0-0.3,0c-0.1,0-0.2,0-0.3,0
		c0,0-0.1,0-0.1,0.1c0.1,0.1,0.1,0.2,0.2,0.2c0.1,0.1,0.1,0.3,0.2,0.4c0,0.1,0.1,0.3,0.1,0.4c0,0,0,0,0.1,0
		C-70.8,159-70.8,158.9-70.7,158.7"/>
	<path id="path90" class="st36" d="M-71.3,159.7c0-0.2,0.1-0.2,0.1-0.3c0-0.2-0.1-0.5-0.2-0.7c0-0.1-0.1-0.1-0.1-0.2
		c-0.1-0.1-0.2-0.2-0.4-0.3c-0.1-0.1-0.2,0-0.3,0c-0.1-0.1-0.1-0.1-0.2-0.2c-0.1-0.1-0.3,0.1-0.4,0.2c0.1-0.1,0.2-0.3,0.2-0.4
		c0.1-0.1,0.1-0.1,0.2-0.2c0,0,0.1,0,0.1,0c0.1,0,0.1,0.1,0.2,0.1c0,0.1,0.1,0.1,0.1,0.2c0.1,0.1,0.1,0.1,0.2,0.2
		c0.1,0.1,0.2,0.1,0.3,0.2c0.1,0.1,0.1,0.2,0.2,0.2c0,0.1,0.1,0.2,0.1,0.3c0.1,0.2,0.1,0.4,0.2,0.6c0,0.1,0,0.1,0,0.2
		c-0.1,0-0.2,0.1-0.2,0.1C-71.2,159.6-71.2,159.7-71.3,159.7"/>
	<path id="path92" class="st36" d="M-73.1,158.6c0.3,0,0.5,0,0.8,0.1c0.1,0.1,0.1,0.2,0.2,0.3c-0.1-0.1-0.1-0.2-0.1-0.4
		c0,0-0.1-0.1-0.1-0.1c-0.2,0-0.4,0-0.6,0C-73,158.5-73.1,158.5-73.1,158.6C-73.1,158.5-73.1,158.6-73.1,158.6
		C-73.2,158.6-73.2,158.6-73.1,158.6"/>
	<path id="path94" class="st36" d="M-73.2,158.8c0,0.1,0,0.1,0,0.2c0-0.3,0-0.5-0.2-0.7c-0.1-0.1-0.2-0.2-0.3-0.3c0-0.1,0-0.1,0-0.2
		c0-0.2-0.4-0.1-0.5-0.1c0.2-0.1,0.5-0.1,0.7-0.2c0.1,0,0.1,0,0.2,0.1c0,0.1,0,0.2,0.1,0.3c0,0.1,0.1,0.2,0.1,0.3c0,0.1,0,0.1,0,0.2
		C-73.2,158.6-73.2,158.7-73.2,158.8"/>
	<path id="path96" class="st36" d="M-73.6,160.3c0-0.1,0-0.2,0-0.3c0.1-0.1,0.2-0.3,0.2-0.4c0,0.1,0,0.2,0,0.3
		C-73.4,160-73.5,160.2-73.6,160.3"/>
	<path id="path98" class="st36" d="M-74.6,159.4c0,0,0-0.1-0.1-0.1c0.1-0.2,0.1-0.3,0.2-0.5c0-0.1,0-0.1-0.1-0.2c-0.1,0-0.2,0-0.3,0
		c0.1-0.1,0.2-0.2,0.3-0.3c0.1,0,0.1,0,0.2,0c0.1,0.1,0.1,0.1,0.2,0.2c-0.1,0.1-0.2,0.3-0.2,0.4C-74.5,159-74.6,159.2-74.6,159.4"/>
	<path id="path100" class="st36" d="M-68.6,161.9c0.1-0.3,0.2-0.6,0.2-0.9c0-0.4-0.1-0.9-0.5-1.1c-0.4-0.3-0.9-0.1-1.4,0
		c0.2-0.1,0.4-0.2,0.6-0.2c0.2,0,0.3,0,0.5,0c0.1,0,0.2,0.1,0.4,0.1c0.1,0.1,0.2,0.2,0.3,0.2c0.1,0.1,0.1,0.3,0.2,0.4
		c0,0.2,0.1,0.3,0.1,0.5c0,0.2,0,0.3-0.1,0.5c0,0.2-0.1,0.3-0.1,0.5C-68.5,161.9-68.5,161.9-68.6,161.9"/>
	<path id="path102" class="st36" d="M-74.8,161c-0.2-0.1-0.3-0.2-0.2-0.4c0-0.1,0-0.1,0.1-0.2c0,0,0.1,0,0.1-0.1c0,0,0.1,0,0.1,0
		c0.1,0,0.1,0,0.2,0c0,0.1,0.1,0.2,0.1,0.3c-0.1,0-0.2-0.1-0.3-0.1c0,0,0,0-0.1,0c0,0,0,0.1-0.1,0.1c0,0,0.1,0.1,0.1,0.1
		C-74.8,160.8-74.8,160.8-74.8,161C-74.8,160.9-74.8,160.9-74.8,161c0.1-0.1,0.1-0.1,0.1-0.1c0,0,0,0.1,0,0.1
		C-74.7,161-74.7,161-74.8,161c0.1,0.1,0,0.1,0,0.1C-74.8,161-74.8,161-74.8,161"/>
	<path id="path104" class="st36" d="M-70.6,162.8c0.2-0.2,0.4-0.3,0.5-0.5c0.1-0.1,0.1-0.1,0-0.2c0.1,0,0.2,0,0.3,0
		c0.2,0,0.3-0.3,0.3-0.4c0,0,0-0.1-0.2-0.1c0,0-0.1,0-0.1,0c0,0,0,0,0.1-0.1c0,0,0-0.1,0-0.2c0.1,0,0.2,0,0.2,0c0,0,0-0.1,0-0.1
		c0,0,0.1,0,0.1,0c0,0.1,0,0.1,0,0.2c0,0,0.1,0.1,0.1,0.1c0,0.1-0.1,0.2-0.1,0.3c-0.1,0.1-0.2,0.1-0.2,0.2c0,0,0,0,0,0
		c-0.1,0.1-0.2,0.1-0.3,0.2c-0.1,0.1-0.3,0.2-0.4,0.3C-70.4,162.6-70.5,162.7-70.6,162.8"/>
	<path id="path106" class="st36" d="M-70.3,161.5C-70.3,161.5-70.3,161.4-70.3,161.5c0-0.1,0.1-0.2,0.1-0.3c-0.1,0-0.2-0.1-0.2-0.1
		c-0.1-0.1-0.1-0.1-0.2-0.2c-0.1,0-0.1,0.1-0.2,0.2c0,0-0.1,0-0.1,0c0,0,0,0,0.1,0c0,0,0.1,0.1,0.1,0.1c0.1,0.1,0.2,0.1,0.2,0.2
		C-70.5,161.4-70.4,161.4-70.3,161.5C-70.3,161.5-70.3,161.5-70.3,161.5"/>
	<path id="path108" class="st36" d="M-70.1,161.2c-0.3-0.1-0.5-0.3-0.6-0.5C-70.7,161-70.4,161.2-70.1,161.2"/>
	<path id="path110" class="st36" d="M-70.7,161.9c-0.2-0.1-0.3-0.4-0.3-0.6c-0.1,0.2,0,0.4,0.1,0.6
		C-70.9,161.8-70.8,161.9-70.7,161.9C-70.8,161.9-70.8,161.9-70.7,161.9"/>
	<g id="g112">
	</g>
	<path id="path136" class="st1" d="M-70.4,160c0,0,0.1,0,0.1,0.1C-70.3,160-70.3,160-70.4,160c-0.1,0-0.1,0-0.1-0.1c0,0,0-0.1,0-0.2
		C-70.5,159.8-70.5,159.8-70.4,160C-70.5,159.9-70.4,159.9-70.4,160L-70.4,160z M-72.3,162.6c0.1,0.1,0.1,0.2,0.3,0.2
		C-72.3,162.8-72.3,162.8-72.3,162.6z M-72.4,162.4c0.1,0.3,0.3,0.4,0.6,0.5C-72.2,162.8-72.3,162.8-72.4,162.4z M-75.5,160.8
		c0,0.1,0.1,0.2,0.2,0.3C-75.5,161.1-75.5,161-75.5,160.8z M-72.2,158.4c0,0,0,0.1,0,0.1c0,0.1,0,0.1,0,0.2c0,0.1,0,0.1,0,0.2
		c0-0.1-0.1-0.1-0.1-0.2c0,0,0,0,0-0.1c-0.3-0.1-0.5-0.1-0.8,0c0,0.1,0,0.2-0.1,0.3c0-0.1,0-0.3,0-0.4c0-0.1,0-0.1-0.1-0.2
		c0-0.1-0.1-0.1-0.1-0.2c0-0.1,0-0.1,0-0.2c0-0.1-0.4,0-0.5,0c-0.1,0-0.4,0.1-0.3,0.3c0.1,0.1,0.1,0.3,0.1,0.5
		c-0.2,0.3-0.4,0.8-0.5,1.2c0,0.3,0,0.5,0.1,0.7c0.1,0.3,0.3,0.6,0.5,0.8c0.3,0.3,0.6,0.4,1.1,0.5c-0.1-0.1-0.2-0.3-0.3-0.4
		c-0.1-0.1-0.2-0.3-0.3-0.5c-0.1-0.2-0.1-0.3,0-0.5c0.1-0.2,0.2-0.2,0.2-0.4c0-0.1-0.1-0.2-0.1-0.3c0.2-0.2,0.3-0.3,0.4-0.3
		c0.1,0,0.3,0,0.4,0c0.3,0.1,0.6,0.3,0.9,0.3c0.1,0.4,0.1,0.7,0.1,1c0,0.2-0.1,0.5-0.1,0.7c-0.1-0.3-0.1-0.5,0-0.7
		c0.1-0.3,0.1-0.6-0.1-0.9c-0.3,0-0.5-0.2-0.8-0.3c-0.1-0.1-0.2-0.1-0.3,0c-0.1,0-0.2,0.1-0.3,0.2c0,0.1,0,0.2,0.1,0.3
		c0.1,0.2,0.2,0.4,0.3,0.6c-0.1-0.2-0.3-0.3-0.4-0.5c0,0.1-0.1,0.2-0.2,0.3c-0.1,0.1-0.1,0.2,0,0.4c0.1,0.2,0.1,0.3,0.3,0.4
		c0.2,0.2,0.4,0.5,0.7,0.8c0.1,0.1,0.2,0.1,0.4,0.2c0.2,0,0.3,0.1,0.5,0.1c-0.2,0-0.3,0-0.5,0c0,0,0,0,0,0c0.2,0.2,0.2,0.3,0.5,0.4
		c0.6,0.3,1,0.3,1.5-0.1c0.1-0.1,0.2-0.2,0.4-0.3c0,0-0.1,0-0.1,0c0.1,0,0.1,0,0.2,0c0,0,0,0,0.1,0c0.1-0.1,0.1-0.1,0.2-0.2
		c0.1-0.1,0.1-0.2,0.2-0.3c0,0-0.1,0-0.1,0c0,0,0,0-0.1,0c0,0-0.1,0-0.1,0c0,0,0,0,0,0c0,0-0.1-0.1-0.2-0.1c0,0,0.1,0,0.1,0
		c0,0,0,0,0,0c0,0,0,0,0-0.1c0,0,0-0.1,0-0.1c0,0,0,0,0,0c0,0,0,0,0,0c0,0,0,0-0.1,0c0.1,0,0.2,0,0.3,0c0,0,0-0.1,0-0.1c0,0,0,0,0,0
		c0,0,0,0,0,0c-0.1,0-0.1,0-0.2,0c-0.2-0.1-0.2-0.2-0.3-0.4c0.1,0.1,0.1,0.3,0.3,0.3c0,0,0.1,0,0.1,0c-0.1,0-0.1-0.1-0.1-0.1
		c-0.1-0.1,0-0.3-0.1-0.4c0.1,0.1,0.1,0.2,0.1,0.4c0,0,0.1,0.1,0.2,0.1c0,0,0,0,0,0c0-0.1,0-0.2,0-0.2c0-0.1,0-0.3-0.1-0.4
		c0.1,0.1,0.1,0.3,0.1,0.4c0,0.1,0,0.3,0,0.4c0,0.2,0.2,0.2,0.3,0.2c0.1,0.1,0.1,0.2,0.2,0.2c0.1,0.1,0.2,0,0.2-0.1
		c0.1-0.3,0.2-0.8,0.2-1.1c0-0.4-0.2-0.7-0.5-0.9c-0.4-0.2-0.9-0.1-1.3,0c-0.1,0-0.1,0.1-0.2,0.1c0-0.1,0-0.2,0-0.3
		c0-0.1-0.1-0.4,0.1-0.4c0.1,0,0.1,0,0.2,0c-0.1,0-0.1,0-0.2,0c-0.1,0-0.1,0-0.1,0.1c0,0,0,0,0.1,0c0.1,0,0.3,0,0.3,0.1
		c0,0.1,0,0.1,0,0.2c0,0,0.1,0,0.1,0c0-0.1,0-0.1-0.1-0.2c0-0.2-0.2-0.3-0.4-0.3c-0.1,0-0.2,0.1-0.3,0.2c-0.1,0.1-0.1,0.1-0.2,0.2
		c-0.2,0.1-0.3,0.1-0.5,0.3c0.1-0.1,0.2-0.2,0.4-0.3c0-0.3-0.1-0.4-0.2-0.7c0-0.1-0.3-0.5-0.4-0.6c-0.1,0-0.4-0.3-0.4-0.3
		c0-0.1-0.1-0.1-0.2-0.2c-0.2-0.1-0.3,0.1-0.5,0.3c-0.1,0.1-0.2,0.3-0.1,0.4C-72.5,158.4-72.4,158.4-72.2,158.4
		C-72.3,158.5-72.2,158.4-72.2,158.4L-72.2,158.4z M-71.5,158c-0.1-0.1-0.3-0.2-0.3-0.3c-0.1-0.1-0.1-0.2-0.2-0.2
		c-0.3-0.2-0.5,0-0.6,0.3c-0.1,0.1-0.3,0.4-0.1,0.5c0.1,0,0.1,0.1,0.2,0.1c-0.2,0-0.4,0-0.6,0c0,0,0-0.1,0-0.1c0-0.1,0-0.2,0-0.2
		c0-0.1-0.1-0.1-0.1-0.2c0-0.1,0-0.2,0-0.3c-0.1-0.2-0.5-0.1-0.7-0.1c-0.2,0.1-0.5,0.1-0.4,0.4c0,0.1,0.1,0.1,0.1,0.2
		c-0.2-0.1-0.4,0.1-0.6,0.2c-0.1,0.1-0.2,0.3-0.2,0.4c0,0.1,0,0.1,0.1,0.2c0.1,0.1,0.1,0.1,0.2,0.2c0,0.1,0.1,0.2,0.1,0.2
		c0,0.1,0,0.1,0,0.2c0,0.3,0,0.4,0,0.6c-0.1-0.1-0.3,0-0.3,0.1c0,0.1,0,0.1-0.1,0.2c-0.3,0.3,0.3,0.6,0.4,0.7c0-0.1,0-0.1-0.1-0.1
		c0.1-0.1,0.1-0.2,0.1-0.3c0,0-0.1,0.1-0.1,0.1c0-0.1,0-0.2-0.1-0.3c0-0.1,0-0.1,0.1,0c0.1,0,0.2,0.1,0.3,0.2
		c0.1,0.2,0.2,0.3,0.4,0.5c0.4,0.3,0.7,0.5,1.3,0.5c0.1,0.1,0.2,0.2,0.2,0.2c0.1,0.1,0.2,0.1,0.3,0.1c0.2,0.2,0.3,0.4,0.6,0.5
		c0.6,0.3,1.1,0.3,1.6-0.1c0.2-0.1,0.3-0.3,0.5-0.4c0.1-0.1,0.2-0.1,0.2-0.2c0.1-0.1,0.2-0.2,0.2-0.3c0.1,0,0.1,0.1,0.2,0.1
		c0.1,0.1,0.1,0.2,0.2,0.2c0.1,0.1,0.3,0,0.4-0.1c0.2-0.3,0.2-0.9,0.2-1.2c0-0.4-0.2-0.8-0.6-1c-0.3-0.1-0.6-0.1-0.9-0.1
		c0-0.1,0-0.1-0.1-0.2c-0.1-0.2-0.3-0.3-0.5-0.3c-0.2,0-0.3,0.1-0.4,0.2c-0.1,0.1-0.1,0.1-0.2,0.2c0,0,0-0.1,0-0.1
		c0-0.1,0.1-0.2,0.1-0.3c0-0.1,0.1-0.2,0.1-0.3c0-0.1,0-0.2,0-0.3c0-0.1,0.1-0.1,0-0.2c0-0.2-0.1-0.2-0.3-0.2c-0.1,0-0.3,0-0.4,0
		C-71.4,157.9-71.4,158-71.5,158z M-70.9,159.1c0-0.1-0.1-0.3-0.1-0.4c0-0.1-0.3-0.5-0.4-0.6c0,0,0.1,0,0.2,0c0.1,0,0.3,0,0.3,0
		c0.1,0,0.2,0,0.2,0.2c0,0.1,0,0.1,0,0.1c0,0.1,0,0.2,0,0.3c0,0.1,0,0.2-0.1,0.3C-70.8,159-70.8,159.1-70.9,159.1z M-74.8,160.9
		C-74.8,160.9-74.7,160.9-74.8,160.9C-74.7,161-74.7,161-74.8,160.9C-74.8,161-74.8,161-74.8,160.9C-74.8,161-74.8,161-74.8,160.9
		L-74.8,160.9z M-74.6,160.6c0-0.1,0-0.1-0.1-0.2c0,0,0,0,0,0c-0.1,0-0.3-0.1-0.3,0c0,0.1,0,0.1-0.1,0.2c-0.2,0.2,0.1,0.4,0.2,0.5
		c0,0,0-0.1,0-0.1c0-0.2,0-0.3-0.1-0.4c0.1-0.1,0.1-0.2,0.2-0.1C-74.7,160.5-74.6,160.5-74.6,160.6z M-74.6,159.3
		c0.1-0.3,0.2-0.6,0.4-0.8c0,0,0,0,0,0c0,0,0-0.1,0-0.1c-0.1-0.2-0.4,0.1-0.5,0.2c-0.1,0.1-0.2,0.2-0.2,0.3c0,0.1,0,0.1,0.1,0.1
		c0.1,0.1,0.1,0.1,0.2,0.2C-74.7,159.2-74.7,159.3-74.6,159.3z M-69.3,161.6C-69.3,161.6-69.3,161.6-69.3,161.6
		C-69.3,161.6-69.3,161.6-69.3,161.6C-69.3,161.6-69.3,161.6-69.3,161.6C-69.3,161.6-69.3,161.6-69.3,161.6z M-70.7,161.1
		C-70.7,161.1-70.7,161.2-70.7,161.1c-0.1,0.1-0.1,0-0.2,0c0.1,0.1,0.2,0.3,0.3,0.3c0.1,0.1,0.2,0.1,0.3,0.1c0,0-0.1-0.1-0.1-0.1
		c0.1,0,0.1-0.1,0.1-0.1c0,0,0,0,0-0.1c0.1,0,0.1,0,0.2,0c-0.2-0.1-0.4-0.2-0.6-0.4c0,0,0,0.1,0.1,0.1
		C-70.6,161-70.7,161-70.7,161.1L-70.7,161.1z M-71.7,161.9c-0.1,0-0.2-0.1-0.3-0.1c-0.1-0.1-0.2-0.2-0.2-0.4c0,0.2,0,0.2,0,0.4
		c0,0,0,0-0.1-0.1c-0.1-0.1-0.3-0.5-0.3-0.6c0,0.2,0.2,0.6,0.3,0.7c0.1,0.1,0.1,0.1,0.2,0.1C-72,161.9-71.8,161.9-71.7,161.9
		L-71.7,161.9z M-69.2,161.5c0.1,0,0.2,0,0.2,0c0.2,0.1,0.3,0.2,0.4,0.4c0-0.2-0.1-0.3-0.3-0.4C-69,161.4-69.1,161.4-69.2,161.5
		L-69.2,161.5z M-71.1,161.5c0,0.2,0.1,0.3,0.4,0.4C-71.1,161.8-71.1,161.7-71.1,161.5z M-75.4,160.6c0,0.3,0.1,0.5,0.3,0.7
		C-75.4,161.1-75.5,161-75.4,160.6"/>
	<path id="path138" class="st35" d="M-70.7,161c0,0,0,0.1,0,0.1c0,0,0.1,0,0.1,0c0,0,0,0,0,0C-70.5,161.1-70.6,161-70.7,161
		C-70.6,161-70.6,161-70.7,161"/>
	<path id="path140" class="st35" d="M-69.6,161.4C-69.6,161.5-69.6,161.5-69.6,161.4c0.1,0.1,0.1,0,0.1,0c0,0,0,0,0,0
		C-69.5,161.4-69.5,161.4-69.6,161.4C-69.6,161.4-69.6,161.4-69.6,161.4"/>
</g>
<g transform="matrix(1.33 0 0 1.33 0 4.05e-6)">
	<path class="st37" d="M-25.7,18.1C-25.7,18.1-25.7,18-25.7,18.1c-0.3-0.6-0.6-1.2-0.9-1.7c0-0.1,0-0.1,0-0.1
		c0.5-0.5,0.9-1.1,1.4-1.6c0,0,0,0,0-0.1c-0.1,0-0.3,0.1-0.4,0.1c-0.6,0.1-1.1,0.3-1.7,0.4c-0.1,0-0.1,0-0.1,0
		c-0.3-0.5-0.6-1.1-1-1.6c0,0,0-0.1-0.1-0.1c0,0.1-0.1,0.3-0.1,0.4c-0.1,0.5-0.2,1-0.3,1.5c0,0.1,0,0.1,0,0.2c0,0.1,0,0.1-0.1,0.1
		c-0.7,0.2-1.3,0.4-2,0.6c0,0-0.1,0-0.1,0c0.5,0.2,1.1,0.4,1.6,0.6c0,0,0,0,0,0c-0.3,0.2-0.7,0.4-1,0.7c0,0-0.1,0-0.1,0
		c-0.4-0.2-0.8-0.4-1.2-0.5c-0.2-0.1-0.3-0.2-0.5-0.3c-0.3-0.3-0.2-0.7,0.2-1c0.1-0.1,0.3-0.1,0.4-0.2c0.6-0.2,1.3-0.4,1.9-0.6
		c0.1,0,0.1,0,0.1-0.1c0.1-0.5,0.2-1,0.3-1.5c0-0.3,0.1-0.5,0.2-0.8c0-0.1,0.1-0.2,0.2-0.3c0.3-0.3,0.6-0.3,0.9,0
		c0.1,0.1,0.2,0.2,0.2,0.3c0.3,0.5,0.6,1,0.9,1.5c0,0.1,0.1,0.1,0.1,0.1c0.7-0.2,1.4-0.4,2.2-0.6c0.1,0,0.3-0.1,0.5,0
		c0.3,0.1,0.5,0.3,0.4,0.6c-0.1,0.1-0.1,0.3-0.2,0.4c-0.5,0.6-1,1.2-1.5,1.8c0,0,0,0.1,0,0.1c0.3,0.6,0.6,1.1,0.9,1.7
		c0.1,0.1,0.1,0.3,0.1,0.4c0,0.4-0.3,0.6-0.6,0.7c-0.2,0-0.4,0-0.6-0.1c-0.5-0.1-0.9-0.3-1.4-0.4c0,0-0.1,0-0.1-0.1
		c-0.1-0.3-0.1-0.6-0.2-1c0,0,0,0,0,0C-26.7,17.8-26.2,18-25.7,18.1"/>
	<path class="st38" d="M-26.6,22.8c-0.4,0-0.8,0-1.2,0c-0.1,0-0.1,0-0.1-0.1c-0.5-0.7-1-1.5-1.4-2.2c0,0,0,0-0.1-0.1
		c-0.1,0.8-0.2,1.6-0.3,2.3h-1.1c0-0.1,0-0.2,0-0.3c0.1-0.8,0.2-1.6,0.3-2.4c0.1-0.8,0.2-1.5,0.3-2.3c0,0,0-0.1,0-0.1
		c0.4-0.2,0.7-0.5,1.1-0.7c0,0,0,0,0,0c-0.1,0.9-0.2,1.7-0.3,2.5c0,0,0,0,0,0c0.6-0.6,1.2-1.3,1.7-1.9c0,0.1,0,0.2,0,0.3
		c0,0.2,0.1,0.5,0.1,0.7c0,0,0,0.1,0,0.1c-0.4,0.4-0.7,0.8-1.1,1.2c0,0,0,0-0.1,0.1c0,0,0,0,0,0.1C-27.9,20.9-27.3,21.8-26.6,22.8
		C-26.6,22.7-26.6,22.7-26.6,22.8L-26.6,22.8"/>
	<path class="st38" d="M-39.2,20.4c0-0.1,0-0.2-0.1-0.3c-0.2-0.6-0.7-0.9-1.3-0.7c-0.6,0.1-1.1,0.7-1.2,1.3c0,0.5,0.2,1,0.7,1.1
		c0.4,0.1,0.8,0.1,1.1-0.1C-39.5,21.4-39.2,21-39.2,20.4L-39.2,20.4z M-42,22.4c0,0.2-0.1,0.5-0.1,0.7c0,0.3-0.1,0.6-0.1,0.9
		c0,0,0,0.1-0.1,0c-0.3,0-0.6,0-0.9,0c0,0,0,0,0,0c0-0.1,0-0.3,0.1-0.4c0.1-0.5,0.1-1,0.2-1.5c0.1-0.6,0.1-1.1,0.2-1.7
		c0.2-1,1-1.8,2-2.1c0.6-0.1,1.1-0.1,1.6,0.3c0.5,0.3,0.8,0.8,0.9,1.4c0.1,0.8-0.2,1.5-0.8,2.1c-0.4,0.4-0.9,0.6-1.4,0.7
		C-40.9,22.9-41.5,22.8-42,22.4C-41.9,22.5-42,22.5-42,22.4"/>
	<path class="st38" d="M-42.5,17.7c-0.3,0.2-0.6,0.5-1,0.7c-0.1-0.1-0.1-0.2-0.2-0.2c-0.1-0.2-0.3-0.3-0.6-0.4
		c-0.2,0-0.4,0.1-0.5,0.2c-0.1,0.1-0.1,0.3,0,0.5c0.1,0.2,0.3,0.3,0.4,0.5c0.2,0.3,0.5,0.5,0.7,0.8c0.2,0.2,0.4,0.5,0.4,0.8
		c0.1,0.4,0,0.8-0.2,1.1c-0.3,0.6-0.9,1-1.6,1.1c-0.3,0.1-0.6,0-0.9,0c-0.4-0.1-0.7-0.4-0.9-0.8c-0.1-0.1-0.1-0.3-0.2-0.4
		c0.4-0.2,0.7-0.4,1-0.6c0,0,0,0.1,0,0.1c0.1,0.1,0.1,0.2,0.2,0.4c0.2,0.3,0.6,0.4,0.9,0.3c0.1,0,0.2-0.1,0.3-0.2
		c0.2-0.2,0.3-0.5,0.1-0.7c-0.1-0.1-0.2-0.3-0.3-0.4c-0.3-0.3-0.6-0.6-0.9-0.9c-0.2-0.2-0.3-0.5-0.4-0.8c0-0.3,0-0.6,0.2-0.9
		c0.4-0.7,1-1,1.8-1c0.5,0,0.8,0.2,1.1,0.6C-42.7,17.5-42.6,17.6-42.5,17.7"/>
	<path class="st38" d="M-34.7,21.4c-0.1,0.4-0.1,0.8-0.2,1.2c0,0,0,0,0,0.1c-0.8,0.4-1.8,0.3-2.5-0.4c-0.4-0.4-0.5-0.9-0.5-1.4
		c0.1-1.2,1.1-2.3,2.3-2.4c0.7-0.1,1.3,0.1,1.8,0.7c0.3,0.4,0.5,0.8,0.5,1.3c0,0.3-0.1,0.6-0.1,1c-0.1,0.5-0.1,0.9-0.2,1.4
		c0,0,0,0,0,0.1h-0.9c0-0.1,0-0.2,0-0.3c0.1-0.5,0.1-1.1,0.2-1.6c0-0.3,0-0.7-0.1-1c-0.2-0.3-0.4-0.5-0.8-0.5
		c-0.7-0.1-1.4,0.4-1.6,1.1c-0.1,0.5,0.1,0.9,0.4,1.2c0.4,0.2,0.8,0.2,1.2,0.1C-35,21.6-34.9,21.5-34.7,21.4"/>
	<path class="st38" d="M-30.7,18.5c0,0.3-0.1,0.7-0.1,1c-0.2,0-0.4,0-0.6,0c-0.2,0-0.3,0.1-0.4,0.3c0,0.1,0,0.1,0,0.2
		c-0.1,0.8-0.2,1.5-0.3,2.3c0,0.2,0,0.4-0.1,0.6h-1c0-0.1,0-0.3,0.1-0.4c0.1-0.5,0.1-1,0.2-1.5c0.1-0.4,0.1-0.9,0.2-1.3
		c0.1-0.6,0.7-1.1,1.2-1.1C-31.2,18.4-31,18.5-30.7,18.5"/>
	<path class="st39" d="M-25.4,22.8v-0.4h0l-0.2,0.4h-0.1l-0.2-0.4h0v0.4h-0.1v-0.5h0.1l0.1,0.4l0.1-0.4h0.1L-25.4,22.8L-25.4,22.8z
		 M-26.1,22.3v0.4h-0.1L-26.1,22.3h-0.2v-0.1h0.4v0.1H-26.1"/>
	<path class="st39" d="M-41.2,17h0.2l-0.1-0.4L-41.2,17z M-40.9,17.3h-0.4l-0.1,0.3h-0.3l0.6-1.2h0.3l0.2,1.2h-0.3L-40.9,17.3"/>
	<path class="st39" d="M-39.4,16.6h-0.1l0,0.3h0.1c0.1,0,0.2-0.1,0.2-0.2C-39.3,16.6-39.4,16.6-39.4,16.6L-39.4,16.6z M-39.8,16.3
		h0.4c0.2,0,0.3,0.1,0.3,0.3c0,0.3-0.2,0.4-0.4,0.4h-0.2l-0.1,0.4H-40L-39.8,16.3"/>
	<path class="st39" d="M-38.2,17h0.2l-0.1-0.4L-38.2,17z M-37.9,17.3h-0.4l-0.1,0.3h-0.3l0.6-1.2h0.3l0.2,1.2h-0.3L-37.9,17.3"/>
	<path class="st39" d="M-36.3,17.5c-0.1,0-0.2,0.1-0.3,0.1c-0.3,0-0.5-0.2-0.5-0.5c0-0.4,0.3-0.7,0.7-0.7c0.1,0,0.2,0,0.3,0.1l0,0.3
		c-0.1-0.1-0.1-0.1-0.2-0.1c-0.2,0-0.4,0.2-0.4,0.4c0,0.2,0.1,0.3,0.3,0.3c0.1,0,0.2,0,0.3-0.1L-36.3,17.5"/>
	<path class="st39" d="M-34.8,17h-0.5l-0.1,0.5h-0.2l0.2-1.2h0.2l-0.1,0.5h0.5l0.1-0.5h0.2l-0.2,1.2h-0.2L-34.8,17"/>
	<path class="st39" d="M-33.9,17.5l0.2-1.2h0.7l0,0.2h-0.4l0,0.2h0.4l0,0.2h-0.4l0,0.2h0.4l0,0.2L-33.9,17.5"/>
</g>
<g>
	
		<linearGradient id="path1948_00000118360440343592401580000015199473495204559549_" gradientUnits="userSpaceOnUse" x1="760.64" y1="-193.266" x2="790.1387" y2="-218.6457" gradientTransform="matrix(0.5625 0 0 -0.568 -419.6687 -100.1094)">
		<stop  offset="0" style="stop-color:#5A9FD4"/>
		<stop  offset="1" style="stop-color:#306998"/>
	</linearGradient>
	<path id="path1948" style="fill:url(#path1948_00000118360440343592401580000015199473495204559549_);" d="M23.8,8.8
		c-1.2,0-2.4,0.1-3.5,0.3c-3.1,0.5-3.6,1.7-3.6,3.8v2.8H24v0.9h-7.3H14c-2.1,0-4,1.3-4.5,3.7c-0.7,2.8-0.7,4.5,0,7.4
		c0.5,2.1,1.7,3.7,3.9,3.7h2.5V28c0-2.4,2.1-4.5,4.5-4.5h7.2c2,0,3.6-1.7,3.6-3.7v-6.9c0-2-1.7-3.4-3.6-3.8
		C26.4,8.9,25.1,8.8,23.8,8.8z M19.9,11c0.7,0,1.4,0.6,1.4,1.4c0,0.8-0.6,1.4-1.4,1.4c-0.8,0-1.4-0.6-1.4-1.4
		C18.5,11.6,19.1,11,19.9,11z"/>
	
		<linearGradient id="path1950_00000023995263286268438820000016720712544104705706_" gradientUnits="userSpaceOnUse" x1="801.5431" y1="-234.0066" x2="791.0091" y2="-219.1028" gradientTransform="matrix(0.5625 0 0 -0.568 -419.6687 -100.1094)">
		<stop  offset="0" style="stop-color:#FFD43B"/>
		<stop  offset="1" style="stop-color:#FFE873"/>
	</linearGradient>
	<path id="path1950" style="fill:url(#path1950_00000023995263286268438820000016720712544104705706_);" d="M32.1,16.5v3.2
		c0,2.5-2.1,4.6-4.5,4.6h-7.2c-2,0-3.6,1.7-3.6,3.7V35c0,2,1.7,3.1,3.6,3.7c2.3,0.7,4.5,0.8,7.2,0c1.8-0.5,3.6-1.6,3.6-3.7v-2.8H24
		v-0.9h7.2h3.6c2.1,0,2.9-1.5,3.6-3.7c0.8-2.3,0.7-4.5,0-7.4c-0.5-2.1-1.5-3.7-3.6-3.7L32.1,16.5z M28.1,34c0.8,0,1.4,0.6,1.4,1.4
		c0,0.8-0.6,1.4-1.4,1.4c-0.7,0-1.4-0.6-1.4-1.4C26.7,34.7,27.3,34,28.1,34z"/>
</g>
</svg>
